<?xml version="1.0" encoding="UTF-8" standalone="no"?>
<!-- Created with Inkscape (http://www.inkscape.org/) -->

<svg
   xmlns:dc="http://purl.org/dc/elements/1.1/"
   xmlns:cc="http://creativecommons.org/ns#"
   xmlns:rdf="http://www.w3.org/1999/02/22-rdf-syntax-ns#"
   xmlns:svg="http://www.w3.org/2000/svg"
   xmlns="http://www.w3.org/2000/svg"
   version="1.1"
   width="900"
   height="900"
   id="svg2">
  <defs
     id="defs4" />
  <metadata
     id="metadata7">
    <rdf:RDF>
      <cc:Work
         rdf:about="">
        <dc:format>image/svg+xml</dc:format>
        <dc:type
           rdf:resource="http://purl.org/dc/dcmitype/StillImage" />
        <dc:title></dc:title>
      </cc:Work>
    </rdf:RDF>
  </metadata>
  <g
     transform="translate(79.911369,-152.45826)"
     id="layer1">
    <path
       d="m 760,433 a 380,430 0 1 1 -760,0 380,430 0 1 1 760,0 z"
       transform="matrix(1.1802697,0,0,1.0430291,-78.413865,150.82667)"
       id="path2952"
       style="fill:#ffffff;stroke:#000000;stroke-width:2.69934988;stroke-linecap:butt;stroke-linejoin:miter;stroke-miterlimit:4;stroke-opacity:1;stroke-dasharray:none" />
    <g
       transform="matrix(1.3895899,0,0,1.3895899,-154.11182,-266.91986)"
       id="g3018">
      <g
         transform="translate(1.8487954,-11.971016)"
         id="g3766">
        <path
           d="m 505.08863,677.45826 c 59.42013,-6.83312 90,-30 115,-50 6.94238,-11.02115 20,-20 26.86062,-21 l 2,1 c 0,0 -8.86062,24.10342 -8.86062,77.5 0,53.39658 8.86062,77.5 8.86062,77.5 -3.86062,10 -28.86062,30 -38.86062,35 -92.66313,-67.91664 -237.94081,-169.43108 -470.43879,-17.18592 -17.49365,11.45525 -22.09689,17.18592 -29.56121,17.18592 -24.999999,0 137.63599,-167.25968 140,-250 2.36401,-82.74032 -85,-85 -95,-60 l -46,22 c 36,-62 96,-102 150.47948,-62 53.67399,39.4086 50.52052,113 -94.47948,293 162.5233,-114.77363 303.80159,-71.40879 340,-63 z"
           id="path2984"
           style="fill:#000000;stroke:none" />
        <path
           d="m 196.8846,492.98559 c -15.93609,-15.9361 -49.19977,-14.97047 -71.32337,0 -8.6711,8.26073 -17.27664,17.20304 -25.4726,25.47267 -15.626088,19.32545 -17.826367,53.80743 0,71.32337 18.73458,18.40832 53.45922,16.39913 71.32336,0 8.63438,-8.6764 17.90953,-17.9067 25.47268,-25.47261 17.64655,-19.35393 18.51822,-52.80515 0,-71.32337 z"
           id="path3758"
           style="fill:#000000;fill-opacity:1;fill-rule:nonzero;stroke:none" />
      </g>
      <path
         d="m 645.08863,472.45826 c -18.49893,-46.24733 -28.82709,-50 -50,-50 -30,0 -42.94656,43.86355 -50,65 -20.02033,59.99322 -9.87412,72.81469 -45,-15 -18.05691,-45.14228 -30.56438,-49.97411 -45,-50 -25.56443,-0.0458 -45.1318,46.0836 -52.0625,66.14891 -19.32674,55.95357 -7.23282,69.54232 -42.9375,-16.14891 -21.19968,-50.87922 -30,-50 -45,-50 -17.65165,0 -33.18343,20.99865 -40,30 l 5,15 c 2.71932,-4.88541 8.98808,-17.97723 15,-15 36.22831,19.26749 32.8592,130 75,130 15,0 35.56801,-38.09132 45,-64.89355 9.43199,-26.80222 15.41348,-65.10645 22.66945,-65.10645 35,0 30.16081,129.71096 72.33055,130 24.52474,0.1681 40.02789,-51.19504 47.66945,-70 7.64155,-18.80495 14,-60 20,-60 40.24148,0 30.76432,101.14263 57.33055,130 10,0 30,-25 30,-35 -7.85028,-37.65137 -11.69411,-45.0081 -20,-75 z"
         id="path2990"
         style="fill:#000000;fill-opacity:1;fill-rule:nonzero;stroke:none" />
    </g>
    <path
       d="m 504.86799,867.83497 c -12.0574,8.10539 -24.13449,16.78536 -35.7692,25.95094 -11.66831,9.19205 -22.18415,18.31515 -31.60969,27.14085 -47.58405,44.55576 -67.37955,81.53154 -67.37955,81.53154 M 504.91511,867.79889 c -12.07306,-8.11445 -24.16642,-16.8051 -35.81632,-25.98263 -11.66521,-9.18961 -22.17859,-18.31032 -31.60219,-27.13382 -47.58949,-44.55889 -67.38705,-81.53848 -67.38705,-81.53848 M 235.35236,867.86337 c 12.05684,8.10507 24.13336,16.78468 35.76754,25.94984 70.57481,55.59738 98.98925,108.67229 98.98925,108.67229 M 235.26216,867.82672 c 12.08681,-8.12241 24.19455,-16.82244 35.85774,-26.01046 70.57481,-55.59738 98.98925,-108.6723 98.98925,-108.6723"
       id="path3064"
       style="fill:none;stroke:#000000;stroke-width:42;stroke-linecap:round;stroke-linejoin:miter;stroke-miterlimit:4;stroke-opacity:1;stroke-dasharray:none" />
  </g>
</svg>
