<?xml version="1.0" encoding="UTF-8" standalone="no"?>
<!-- Created with Inkscape (http://www.inkscape.org/) -->

<svg
   xmlns:dc="http://purl.org/dc/elements/1.1/"
   xmlns:cc="http://creativecommons.org/ns#"
   xmlns:rdf="http://www.w3.org/1999/02/22-rdf-syntax-ns#"
   xmlns:svg="http://www.w3.org/2000/svg"
   xmlns="http://www.w3.org/2000/svg"
   xmlns:sodipodi="http://sodipodi.sourceforge.net/DTD/sodipodi-0.dtd"
   xmlns:inkscape="http://www.inkscape.org/namespaces/inkscape"
   width="901.49994"
   height="901.49994"
   id="svg2"
   version="1.1"
   inkscape:version="0.48.1 "
   sodipodi:docname="Gottheit Namenloser.svg">
  <defs
     id="defs4" />
  <sodipodi:namedview
     id="base"
     pagecolor="#ffffff"
     bordercolor="#666666"
     borderopacity="1.0"
     inkscape:pageopacity="0.0"
     inkscape:pageshadow="2"
     inkscape:zoom="0.83305605"
     inkscape:cx="265.28827"
     inkscape:cy="450.74995"
     inkscape:document-units="px"
     inkscape:current-layer="layer1"
     showgrid="true"
     fit-margin-top="0"
     fit-margin-left="0"
     fit-margin-right="0"
     fit-margin-bottom="0"
     inkscape:window-width="1280"
     inkscape:window-height="968"
     inkscape:window-x="-4"
     inkscape:window-y="-4"
     inkscape:window-maximized="1"
     inkscape:snap-grids="true">
    <inkscape:grid
       type="xygrid"
       id="grid2985"
       empspacing="5"
       visible="true"
       enabled="true"
       snapvisiblegridlinesonly="true" />
  </sodipodi:namedview>
  <metadata
     id="metadata7">
    <rdf:RDF>
      <cc:Work
         rdf:about="">
        <dc:format>image/svg+xml</dc:format>
        <dc:type
           rdf:resource="http://purl.org/dc/dcmitype/StillImage" />
        <dc:title></dc:title>
      </cc:Work>
    </rdf:RDF>
  </metadata>
  <g
     inkscape:label="Layer 1"
     inkscape:groupmode="layer"
     id="layer1"
     transform="translate(79.911369,-150.95829)">
    <path
       transform="matrix(1.1822368,0,0,1.0447674,-78.411369,149.32399)"
       d="m 760,433 a 380,430 0 1 1 -760,0 380,430 0 1 1 760,0 z"
       sodipodi:ry="430"
       sodipodi:rx="380"
       sodipodi:cy="433"
       sodipodi:cx="380"
       id="path3044"
       style="fill:none;stroke:none"
       sodipodi:type="arc" />
    <path
       sodipodi:type="arc"
       style="fill:#ffffff;stroke:#000000;stroke-width:2.69934988000000020;stroke-linecap:butt;stroke-linejoin:miter;stroke-miterlimit:4;stroke-opacity:1;stroke-dasharray:none"
       id="path2952"
       sodipodi:cx="380"
       sodipodi:cy="433"
       sodipodi:rx="380"
       sodipodi:ry="430"
       d="m 760,433 a 380,430 0 1 1 -760,0 380,430 0 1 1 760,0 z"
       transform="matrix(1.1822368,0,0,1.0447674,-78.411369,149.32399)" />
    <path
       sodipodi:type="arc"
       style="fill:none;stroke:#000000;stroke-width:39;stroke-linecap:square;stroke-linejoin:miter;stroke-miterlimit:4;stroke-opacity:1;stroke-dasharray:none"
       id="path2993"
       sodipodi:cx="490"
       sodipodi:cy="401.49994"
       sodipodi:rx="260"
       sodipodi:ry="260"
       d="m 750,401.49994 a 260,260 0 1 1 -520,0 260,260 0 1 1 520,0 z"
       transform="translate(-119.1614,200.20832)" />
    <path
       sodipodi:type="arc"
       style="fill:#000000;stroke:none"
       id="path3763"
       sodipodi:cx="25"
       sodipodi:cy="96.499939"
       sodipodi:rx="15"
       sodipodi:ry="15"
       d="m 40,96.499939 a 15,15 0 1 1 -30,0 15,15 0 1 1 30,0 z"
       transform="matrix(5.6333333,0,0,5.6333333,230.00527,58.09194)" />
    <path
       sodipodi:nodetypes="szczczs"
       inkscape:connector-curvature="0"
       id="path3790"
       d="m 370.86114,602.64432 c -0.62806,0 4.8184,108.64116 20.67701,217.28221 15.85861,108.64112 42.12938,217.28207 42.12938,217.28207 0,0 -17.67077,10.2498 -62.80639,10.2498 -45.13562,0 -62.80638,-10.2498 -62.80638,-10.2498 0,0 26.27076,-108.64095 42.12937,-217.28207 15.85861,-108.64105 21.30508,-217.28221 20.67701,-217.28221 z"
       inkscape:transform-center-y="70.738181"
       style="fill:#000000;fill-opacity:1;fill-rule:nonzero;stroke:#000000;stroke-width:1.03385067;stroke-linecap:butt;stroke-linejoin:bevel;stroke-miterlimit:4;stroke-opacity:1;stroke-dasharray:none" />
    <path
       style="fill:#000000;fill-opacity:1;fill-rule:nonzero;stroke:#000000;stroke-width:1.03385067;stroke-linecap:butt;stroke-linejoin:bevel;stroke-miterlimit:4;stroke-opacity:1;stroke-dasharray:none"
       inkscape:transform-center-y="-60.011029"
       d="M 369.89205,601.00839 C 370.20608,600.46446 273.39686,550.86065 171.38164,510.2741 69.366351,469.68749 -37.854838,438.11815 -37.854838,438.11815 c 0,0 -0.04126,-20.42824 22.526514,-59.51684 22.5678712,-39.08859 40.279811,-49.26702 40.279811,-49.26702 0,0 80.950503,77.07165 167.107163,145.12617 86.15661,68.05449 177.51938,127.09185 177.8334,126.54793 z"
       id="path3796"
       inkscape:connector-curvature="0"
       sodipodi:nodetypes="szczczs"
       inkscape:transform-center-x="72.528667" />
    <path
       inkscape:transform-center-x="-72.528666"
       sodipodi:nodetypes="szczczs"
       inkscape:connector-curvature="0"
       id="path3798"
       d="m 371.78515,601.00839 c -0.31403,-0.54393 96.4952,-50.14774 198.51042,-90.73429 102.01529,-40.58661 209.23647,-72.15595 209.23647,-72.15595 0,0 0.0413,-20.42824 -22.52651,-59.51684 -22.56787,-39.08859 -40.27981,-49.26702 -40.27981,-49.26702 0,0 -80.9505,77.07165 -167.10716,145.12617 -86.15661,68.05449 -177.51938,127.09185 -177.83341,126.54793 z"
       inkscape:transform-center-y="-60.011029"
       style="fill:#000000;fill-opacity:1;fill-rule:nonzero;stroke:#000000;stroke-width:1.03385067;stroke-linecap:butt;stroke-linejoin:bevel;stroke-miterlimit:4;stroke-opacity:1;stroke-dasharray:none" />
  </g>
</svg>
