<?xml version="1.0" encoding="UTF-8" standalone="no"?>
<!-- Created with Inkscape (http://www.inkscape.org/) -->

<svg
   xmlns:dc="http://purl.org/dc/elements/1.1/"
   xmlns:cc="http://creativecommons.org/ns#"
   xmlns:rdf="http://www.w3.org/1999/02/22-rdf-syntax-ns#"
   xmlns:svg="http://www.w3.org/2000/svg"
   xmlns="http://www.w3.org/2000/svg"
   version="1.1"
   width="901.49994"
   height="901.49994"
   id="svg2">
  <defs
     id="defs4" />
  <metadata
     id="metadata7">
    <rdf:RDF>
      <cc:Work
         rdf:about="">
        <dc:format>image/svg+xml</dc:format>
        <dc:type
           rdf:resource="http://purl.org/dc/dcmitype/StillImage" />
        <dc:title></dc:title>
      </cc:Work>
    </rdf:RDF>
  </metadata>
  <g
     transform="translate(48.356484,-153.53618)"
     id="layer1">
    <path
       d="m 760,433 a 380,430 0 1 1 -760,0 380,430 0 1 1 760,0 z"
       transform="matrix(1.1822368,0,0,1.0447674,-46.856484,151.90188)"
       id="path2952"
       style="fill:#ffffff;fill-opacity:1;stroke:#000000;stroke-width:2.69934988;stroke-linecap:butt;stroke-linejoin:miter;stroke-miterlimit:4;stroke-opacity:1;stroke-dasharray:none" />
    <path
       d="m -1087.8634,679.59368 0,0 z"
       id="path7209"
       style="fill:none;stroke:#000000;stroke-width:3;stroke-linecap:butt;stroke-linejoin:miter;stroke-miterlimit:4;stroke-opacity:1;stroke-dasharray:none" />
    <g
       transform="matrix(0.92296898,0.38487434,-0.38487434,0.92296898,-1188.9015,210.99325)"
       id="g5124"
       style="stroke:#000000;stroke-width:3;stroke-miterlimit:4;stroke-opacity:1;stroke-dasharray:none" />
    <g
       transform="translate(730,124)"
       id="g5040">
      <path
         d="m -344.21395,329.53698 0,60 -160,0 0,-60 -40,0 0,160 40,0 0,-60 160,0 0,40 40,0 0,-40 160,0 0,60 40,0 0,-160 -40,0 0,60 -160,0 0,-60 -40,0 z"
         id="rect3741"
         style="fill:#000000;fill-opacity:1;stroke:#ffffff;stroke-width:3;stroke-linecap:butt;stroke-linejoin:miter;stroke-miterlimit:4;stroke-opacity:1;stroke-dasharray:none" />
      <path
         d="m -480.10747,119.53205 17.3125,30 121.25,210 17.34375,30 17.3125,-30 121.25,-210 17.3125,-30 -34.625,0 -242.5,0 -34.65625,0 z m 69.28125,40 173.21875,0 -86.625,150 -86.59375,-150 z"
         id="path2945"
         style="font-size:medium;font-style:normal;font-variant:normal;font-weight:normal;font-stretch:normal;text-indent:0;text-align:start;text-decoration:none;line-height:normal;letter-spacing:normal;word-spacing:normal;text-transform:none;direction:ltr;block-progression:tb;writing-mode:lr-tb;text-anchor:start;color:#000000;fill:#000000;fill-opacity:1;fill-rule:nonzero;stroke:#ffffff;stroke-width:3;stroke-miterlimit:4;stroke-dasharray:none;marker:none;visibility:visible;display:inline;overflow:visible;enable-background:accumulate;font-family:Bitstream Vera Sans;-inkscape-font-specification:Bitstream Vera Sans" />
      <path
         d="m -324.21395,449.53698 c -6.7546,0 -13.41751,0.346 -20,1 l 0,40.25 c 6.55412,-0.81758 13.22439,-1.25 20,-1.25 88.36556,0 160,71.63444 160,160 0,88.36556 -71.63444,160 -160,160 -73.80053,0 -135.92975,-49.95785 -154.40625,-117.90625 l -38.59375,10.53125 c 23.1054,84.92074 100.75982,147.375 193,147.375 110.45695,0 200,-89.54305 200,-200 0,-110.45695 -89.54305,-200 -200,-200 z"
         id="path3733"
         style="fill:#000000;fill-opacity:1;stroke:#ffffff;stroke-width:3;stroke-linecap:butt;stroke-linejoin:miter;stroke-miterlimit:4;stroke-opacity:1;stroke-dasharray:none" />
      <path
         d="m 239.99999,633.71429 a 49.285713,49.285713 0 1 1 -98.57142,0 49.285713,49.285713 0 1 1 98.57142,0 z"
         transform="translate(-698.21395,46.53698)"
         id="path3770"
         style="fill:#000000;fill-opacity:1;stroke:#ffffff;stroke-width:3;stroke-linecap:butt;stroke-linejoin:miter;stroke-miterlimit:4;stroke-opacity:1;stroke-dasharray:none" />
    </g>
  </g>
</svg>
