<?xml version="1.0" encoding="UTF-8" standalone="no"?>
<!-- Created with Inkscape (http://www.inkscape.org/) -->

<svg
   xmlns:dc="http://purl.org/dc/elements/1.1/"
   xmlns:cc="http://creativecommons.org/ns#"
   xmlns:rdf="http://www.w3.org/1999/02/22-rdf-syntax-ns#"
   xmlns:svg="http://www.w3.org/2000/svg"
   xmlns="http://www.w3.org/2000/svg"
   version="1.1"
   width="900"
   height="900"
   id="svg2">
  <defs
     id="defs4" />
  <metadata
     id="metadata7">
    <rdf:RDF>
      <cc:Work
         rdf:about="">
        <dc:format>image/svg+xml</dc:format>
        <dc:type
           rdf:resource="http://purl.org/dc/dcmitype/StillImage" />
        <dc:title></dc:title>
      </cc:Work>
    </rdf:RDF>
  </metadata>
  <g
     transform="translate(79.911369,-152.45823)"
     id="layer1">
    <g
       transform="matrix(0.99833615,0,0,0.99833615,-0.13296064,1.7511055)"
       id="g2996"
       style="fill:none">
      <path
         d="m 760,433 a 380,430 0 1 1 -760,0 380,430 0 1 1 760,0 z"
         transform="matrix(1.1822368,0,0,1.0447674,-78.411369,149.32399)"
         id="path3044"
         style="fill:none;stroke:none" />
      <path
         d="m 760,433 a 380,430 0 1 1 -760,0 380,430 0 1 1 760,0 z"
         transform="matrix(1.1822368,0,0,1.0447674,-78.411369,149.32399)"
         id="path2952"
         style="fill:none;stroke:#000000;stroke-width:2.69934988;stroke-linecap:butt;stroke-linejoin:miter;stroke-miterlimit:4;stroke-opacity:1;stroke-dasharray:none" />
    </g>
    <g
       id="g3961">
      <g
         transform="matrix(0.979021,0,0,0.979021,7.7640884,8.3033069)"
         id="g3758">
        <path
           d="m 660,401.49994 a 190,190 0 1 1 -380,0 190,190 0 1 1 380,0 z"
           transform="matrix(1.4210526,0,0,1.4210526,-297.80609,31.905698)"
           id="path2986"
           style="fill:none;stroke:#000000;stroke-width:22.51851845;stroke-miterlimit:4;stroke-dasharray:none" />
        <path
           d="m 660,401.49994 a 190,190 0 1 1 -380,0 190,190 0 1 1 380,0 z"
           transform="matrix(0.9868421,0,0,0.9868421,-93.727156,206.24119)"
           id="path3756"
           style="fill:none;stroke:#000000;stroke-width:32.42666626;stroke-miterlimit:4;stroke-dasharray:none" />
      </g>
      <g
         id="g3897">
        <path
           d="m 50.088631,552.45823 -87.274064,25.70552 c 37.034917,138.21617 62.274064,149.29448 118.274064,218.29448 5.92292,-88.28688 7.045,-102.01413 -31,-244 z"
           id="path3762"
           style="fill:none;stroke:#000000;stroke-width:24;stroke-linecap:round;stroke-linejoin:round;stroke-miterlimit:4;stroke-opacity:1;stroke-dasharray:none" />
        <g
           transform="translate(-15.427381,5.52686)"
           id="g3887"
           style="stroke-width:16;stroke-miterlimit:4;stroke-dasharray:none">
          <path
             d="m -26.483988,570.93137 c -8.068386,-73 2.408215,-124 32,-184"
             id="path3765"
             style="fill:none;stroke:#000000;stroke-width:16;stroke-linecap:round;stroke-linejoin:miter;stroke-miterlimit:4;stroke-opacity:1;stroke-dasharray:none" />
          <path
             d="m 4.516012,557.93137 c -9,-111 31,-191 81,-231"
             id="path3767"
             style="fill:none;stroke:#000000;stroke-width:16;stroke-linecap:round;stroke-linejoin:miter;stroke-miterlimit:4;stroke-opacity:1;stroke-dasharray:none" />
          <path
             d="m 68.516012,543.93137 c -13,-117 66.999998,-207 166.999998,-227"
             id="path3769"
             style="fill:none;stroke:#000000;stroke-width:16;stroke-linecap:round;stroke-linejoin:miter;stroke-miterlimit:4;stroke-opacity:1;stroke-dasharray:none" />
          <path
             d="m 35.516012,550.93137 c -20,-114 69.999998,-224 129.999998,-244"
             id="path3771"
             style="fill:none;stroke:#000000;stroke-width:16;stroke-linecap:round;stroke-linejoin:miter;stroke-miterlimit:4;stroke-opacity:1;stroke-dasharray:none" />
        </g>
        <path
           d="m 80.088631,672.45823 c 10,-115 29.999999,-160 5,-205"
           id="path3773"
           style="fill:none;stroke:#000000;stroke-width:16;stroke-linecap:round;stroke-linejoin:miter;stroke-miterlimit:4;stroke-opacity:1;stroke-dasharray:none" />
        <g
           transform="translate(0,-1.00003)"
           id="g3893">
          <path
             d="m 80.088631,792.45823 c 10,40 94.999999,80 144.999999,100 53.20891,21.28356 97.70614,35.68715 105,60 5.92384,19.74612 -11,38.0001 -17,51.99997"
             id="path3775"
             style="fill:none;stroke:#000000;stroke-width:24;stroke-linecap:round;stroke-linejoin:miter;stroke-miterlimit:4;stroke-opacity:1;stroke-dasharray:none" />
          <path
             d="m 430,835 a 35,35 0 1 1 -70,0 35,35 0 1 1 70,0 z"
             transform="translate(-114.91137,157.45826)"
             id="path3777"
             style="fill:none;stroke:#000000;stroke-width:24;stroke-linecap:round;stroke-linejoin:round;stroke-miterlimit:4;stroke-opacity:1;stroke-dasharray:none" />
        </g>
      </g>
      <g
         transform="matrix(-1,0,0,1,740.17726,0)"
         id="g3909">
        <path
           d="m 50.088631,552.45823 -87.274064,25.70552 c 37.034917,138.21617 62.274064,149.29448 118.274064,218.29448 5.92292,-88.28688 7.045,-102.01413 -31,-244 z"
           id="path3911"
           style="fill:none;stroke:#000000;stroke-width:24;stroke-linecap:round;stroke-linejoin:round;stroke-miterlimit:4;stroke-opacity:1;stroke-dasharray:none" />
        <g
           transform="translate(-15.427381,5.52686)"
           id="g3913"
           style="stroke-width:16;stroke-miterlimit:4;stroke-dasharray:none">
          <path
             d="m -26.483988,570.93137 c -8.068386,-73 2.408215,-124 32,-184"
             id="path3915"
             style="fill:none;stroke:#000000;stroke-width:16;stroke-linecap:round;stroke-linejoin:miter;stroke-miterlimit:4;stroke-opacity:1;stroke-dasharray:none" />
          <path
             d="m 4.516012,557.93137 c -9,-111 31,-191 81,-231"
             id="path3917"
             style="fill:none;stroke:#000000;stroke-width:16;stroke-linecap:round;stroke-linejoin:miter;stroke-miterlimit:4;stroke-opacity:1;stroke-dasharray:none" />
          <path
             d="m 68.516012,543.93137 c -13,-117 66.999998,-207 166.999998,-227"
             id="path3919"
             style="fill:none;stroke:#000000;stroke-width:16;stroke-linecap:round;stroke-linejoin:miter;stroke-miterlimit:4;stroke-opacity:1;stroke-dasharray:none" />
          <path
             d="m 35.516012,550.93137 c -20,-114 69.999998,-224 129.999998,-244"
             id="path3921"
             style="fill:none;stroke:#000000;stroke-width:16;stroke-linecap:round;stroke-linejoin:miter;stroke-miterlimit:4;stroke-opacity:1;stroke-dasharray:none" />
        </g>
        <path
           d="m 80.088631,672.45823 c 10,-115 29.999999,-160 5,-205"
           id="path3923"
           style="fill:none;stroke:#000000;stroke-width:16;stroke-linecap:round;stroke-linejoin:miter;stroke-miterlimit:4;stroke-opacity:1;stroke-dasharray:none" />
        <g
           transform="translate(0,-1.00003)"
           id="g3925">
          <path
             d="m 80.088631,792.45823 c 10,40 94.999999,80 144.999999,100 53.20891,21.28356 97.70614,35.68715 105,60 5.92384,19.74612 -11,38.0001 -17,51.99997"
             id="path3927"
             style="fill:none;stroke:#000000;stroke-width:24;stroke-linecap:round;stroke-linejoin:miter;stroke-miterlimit:4;stroke-opacity:1;stroke-dasharray:none" />
          <path
             d="m 430,835 a 35,35 0 1 1 -70,0 35,35 0 1 1 70,0 z"
             transform="translate(-114.91137,157.45826)"
             id="path3929"
             style="fill:none;stroke:#000000;stroke-width:24;stroke-linecap:round;stroke-linejoin:round;stroke-miterlimit:4;stroke-opacity:1;stroke-dasharray:none" />
        </g>
      </g>
    </g>
  </g>
</svg>
