<svg xmlns="http://www.w3.org/2000/svg" width="1280" height="1280" viewBox="0 0 1280 1280" version="1.1"><path d="M 604.658 5.106 C 596.494 5.550, 583.219 6.627, 575.158 7.499 C 567.096 8.370, 555.775 9.759, 550 10.585 C 544.225 11.412, 534.550 12.984, 528.500 14.080 C 522.450 15.176, 510.101 17.674, 501.057 19.632 C 492.013 21.589, 476.263 25.591, 466.057 28.524 C 455.851 31.457, 440.750 36.194, 432.500 39.052 C 424.250 41.910, 410.525 47.062, 402 50.502 C 393.475 53.942, 379.075 60.226, 370 64.466 C 360.925 68.707, 347.200 75.591, 339.500 79.763 C 331.800 83.935, 319.875 90.724, 313 94.848 C 306.125 98.973, 294.425 106.401, 287 111.355 C 279.575 116.309, 269.225 123.509, 264 127.355 C 258.775 131.202, 250.225 137.728, 245 141.858 C 239.775 145.988, 230.794 153.447, 225.043 158.434 C 219.292 163.420, 209.392 172.349, 203.043 178.275 C 196.694 184.201, 185.486 195.451, 178.135 203.275 C 170.783 211.099, 159.495 223.800, 153.049 231.500 C 146.603 239.200, 136.470 252.016, 130.532 259.981 C 124.593 267.945, 115.121 281.445, 109.483 289.981 C 103.846 298.516, 95.555 311.800, 91.059 319.500 C 86.563 327.200, 78.441 342.305, 73.009 353.066 C 67.578 363.827, 59.780 380.477, 55.680 390.066 C 51.580 399.655, 45.535 414.925, 42.247 424 C 38.959 433.075, 34.210 447.475, 31.693 456 C 29.177 464.525, 25.980 475.775, 24.589 481 C 23.198 486.225, 20.744 496.575, 19.136 504 C 17.528 511.425, 15.055 524.250, 13.642 532.500 C 12.228 540.750, 10.393 552.900, 9.565 559.500 C 8.737 566.100, 7.598 576.225, 7.034 582 C 6.470 587.775, 5.545 603.182, 4.978 616.238 C 4.263 632.712, 4.271 647.401, 5.004 664.238 C 5.585 677.582, 6.735 695.025, 7.560 703 C 8.385 710.975, 9.961 723.800, 11.062 731.500 C 12.163 739.200, 15.062 755.400, 17.505 767.500 C 19.947 779.600, 24 796.925, 26.511 806 C 29.022 815.075, 32.899 828.125, 35.128 835 C 37.357 841.875, 41.214 853.125, 43.701 860 C 46.187 866.875, 51.586 880.375, 55.700 890 C 59.814 899.625, 67.637 916.301, 73.085 927.058 C 78.533 937.814, 86.653 952.889, 91.129 960.558 C 95.605 968.226, 103.935 981.582, 109.640 990.238 C 115.345 998.894, 125.358 1013.069, 131.890 1021.738 C 138.422 1030.407, 148.486 1043.125, 154.256 1050 C 160.025 1056.875, 170.468 1068.575, 177.463 1076 C 184.457 1083.425, 196.327 1095.289, 203.840 1102.365 C 211.353 1109.440, 223.800 1120.509, 231.500 1126.962 C 239.200 1133.415, 250.952 1142.792, 257.616 1147.800 C 264.280 1152.808, 275.987 1161.158, 283.632 1166.355 C 291.276 1171.551, 303.824 1179.595, 311.515 1184.229 C 319.207 1188.863, 331.800 1196.059, 339.500 1200.219 C 347.200 1204.379, 360.700 1211.156, 369.500 1215.279 C 378.300 1219.401, 390.571 1224.861, 396.769 1227.412 C 402.967 1229.962, 413.459 1234.066, 420.086 1236.532 C 426.712 1238.998, 440.091 1243.523, 449.817 1246.588 C 459.543 1249.653, 475.375 1254.118, 485 1256.510 C 494.625 1258.902, 507 1261.772, 512.500 1262.888 C 518 1264.004, 529.250 1266.037, 537.500 1267.407 C 545.750 1268.777, 558.350 1270.576, 565.500 1271.406 C 572.650 1272.236, 585.025 1273.480, 593 1274.171 C 600.975 1274.862, 622.125 1275.427, 640 1275.427 C 657.875 1275.427, 679.025 1274.864, 687 1274.175 C 694.975 1273.486, 708.758 1272.045, 717.628 1270.972 C 726.499 1269.899, 740.449 1267.873, 748.628 1266.470 C 756.808 1265.067, 771.345 1262.132, 780.932 1259.948 C 790.520 1257.764, 805.550 1253.920, 814.332 1251.405 C 823.114 1248.890, 837.545 1244.351, 846.400 1241.318 C 855.255 1238.285, 869.250 1233.079, 877.500 1229.749 C 885.750 1226.419, 899.600 1220.398, 908.278 1216.369 C 916.956 1212.340, 930.906 1205.358, 939.278 1200.854 C 947.650 1196.350, 960.125 1189.292, 967 1185.169 C 973.875 1181.046, 986.211 1173.164, 994.414 1167.653 C 1002.616 1162.143, 1014.991 1153.386, 1021.914 1148.193 C 1028.836 1143, 1040.800 1133.460, 1048.500 1126.993 C 1056.200 1120.526, 1068.514 1109.569, 1075.865 1102.644 C 1083.216 1095.719, 1095.077 1083.854, 1102.223 1076.276 C 1109.369 1068.699, 1119.945 1056.875, 1125.725 1050 C 1131.505 1043.125, 1141.578 1030.407, 1148.110 1021.738 C 1154.642 1013.069, 1164.655 998.894, 1170.360 990.238 C 1176.065 981.582, 1184.395 968.226, 1188.871 960.558 C 1193.347 952.889, 1201.458 937.814, 1206.896 927.058 C 1212.333 916.301, 1219.132 902.100, 1222.004 895.500 C 1224.877 888.900, 1229.243 878.325, 1231.707 872 C 1234.171 865.675, 1238.851 852.652, 1242.107 843.060 C 1245.363 833.467, 1250.032 818.392, 1252.482 809.560 C 1254.932 800.727, 1258.283 787.425, 1259.928 780 C 1261.573 772.575, 1264.054 760.329, 1265.441 752.787 C 1266.827 745.245, 1268.863 732.195, 1269.965 723.787 C 1271.067 715.379, 1272.426 703.550, 1272.986 697.500 C 1273.545 691.450, 1274.464 676.043, 1275.028 663.262 C 1275.737 647.182, 1275.727 632.550, 1274.996 615.762 C 1274.415 602.418, 1273.265 584.975, 1272.440 577 C 1271.615 569.025, 1270.039 556.200, 1268.938 548.500 C 1267.837 540.800, 1264.941 524.600, 1262.502 512.500 C 1260.063 500.400, 1255.612 481.725, 1252.611 471 C 1249.610 460.275, 1244.134 442.725, 1240.442 432 C 1236.750 421.275, 1230.854 405.525, 1227.339 397 C 1223.824 388.475, 1215.592 370.700, 1209.045 357.500 C 1202.498 344.300, 1193.449 327.200, 1188.937 319.500 C 1184.424 311.800, 1176.065 298.418, 1170.360 289.762 C 1164.655 281.106, 1154.642 266.931, 1148.110 258.262 C 1141.578 249.593, 1131.512 236.875, 1125.740 230 C 1119.969 223.125, 1109.201 211.076, 1101.811 203.224 C 1094.421 195.372, 1082.553 183.513, 1075.437 176.871 C 1068.322 170.228, 1056.200 159.496, 1048.500 153.021 C 1040.800 146.546, 1028.836 137, 1021.914 131.807 C 1014.991 126.614, 1002.616 117.847, 994.414 112.324 C 986.211 106.802, 973.650 98.784, 966.500 94.506 C 959.350 90.229, 946.837 83.148, 938.693 78.771 C 930.549 74.393, 916.824 67.548, 908.193 63.559 C 899.562 59.571, 885.750 53.582, 877.500 50.252 C 869.250 46.921, 855.255 41.715, 846.400 38.682 C 837.545 35.649, 823.114 31.110, 814.332 28.595 C 805.550 26.080, 790.520 22.233, 780.932 20.046 C 771.345 17.859, 755.625 14.737, 746 13.108 C 736.375 11.479, 719.950 9.208, 709.500 8.061 C 699.050 6.914, 682.400 5.539, 672.500 5.007 C 662.600 4.474, 646.625 4.096, 637 4.167 C 627.375 4.238, 612.821 4.661, 604.658 5.106 M 620.609 25.991 C 616.819 26.470, 610.294 27.622, 606.109 28.551 C 601.924 29.480, 594.675 31.589, 590 33.237 C 585.325 34.885, 577.225 38.389, 572 41.023 C 566.775 43.658, 559.305 48.070, 555.401 50.827 C 551.496 53.584, 544.446 59.490, 539.733 63.951 C 535.020 68.413, 528.676 75.311, 525.636 79.281 C 522.595 83.252, 517.850 90.256, 515.092 94.846 C 512.334 99.436, 508.222 107.936, 505.955 113.734 C 503.688 119.533, 500.732 129.053, 499.387 134.889 C 497.720 142.118, 496.761 149.962, 496.375 159.500 C 496.064 167.200, 496.245 176.875, 496.777 181 C 497.309 185.125, 497.629 188.635, 497.489 188.799 C 497.349 188.964, 495.573 187.971, 493.542 186.593 C 491.511 185.215, 487.296 183.126, 484.175 181.951 C 481.054 180.776, 475.125 179.477, 471 179.066 C 466.875 178.654, 459.900 178.706, 455.500 179.180 C 451.100 179.655, 444.191 180.944, 440.147 182.047 C 436.103 183.149, 428.678 185.637, 423.647 187.577 C 418.616 189.517, 409.855 193.560, 404.179 196.561 C 398.502 199.562, 389.502 204.750, 384.179 208.091 C 378.855 211.432, 369.368 217.841, 363.095 222.333 C 356.823 226.825, 345.798 235.402, 338.595 241.393 C 331.393 247.384, 320.446 256.985, 314.269 262.727 C 308.092 268.470, 300.773 276.015, 298.005 279.493 C 295.237 282.972, 291.789 288.404, 290.342 291.565 C 288.682 295.191, 287.536 299.752, 287.238 303.922 C 286.928 308.250, 287.337 312.772, 288.423 317.016 C 289.335 320.582, 291.646 326.650, 293.558 330.500 C 295.471 334.350, 299.699 341.202, 302.955 345.727 L 308.874 353.953 300.566 371.227 C 295.997 380.727, 289.326 395.925, 285.742 405 C 282.157 414.075, 276.952 428.475, 274.173 437 C 271.394 445.525, 267.527 458.575, 265.578 466 C 263.629 473.425, 260.892 484.675, 259.495 491 C 258.098 497.325, 255.819 509.212, 254.430 517.416 C 253.041 525.620, 251.049 539.826, 250.002 548.984 C 248.955 558.142, 247.562 576.517, 246.906 589.818 C 245.983 608.541, 245.983 619.459, 246.906 638.182 C 247.562 651.483, 248.969 669.978, 250.032 679.283 C 251.096 688.587, 253.105 702.937, 254.496 711.171 C 255.888 719.405, 257.945 730.272, 259.068 735.321 C 260.190 740.369, 262.680 750.749, 264.601 758.387 C 266.523 766.024, 270.998 781.148, 274.547 791.994 C 278.096 802.841, 281 813.188, 281 814.989 C 281 816.790, 280.096 819.727, 278.991 821.514 C 277.886 823.302, 275.702 825.295, 274.137 825.943 C 272.572 826.591, 269.763 827.186, 267.896 827.263 C 266.028 827.341, 256.850 826.800, 247.500 826.062 C 236.754 825.212, 224.614 824.947, 214.500 825.340 C 205.700 825.682, 195.350 826.427, 191.500 826.996 C 187.650 827.565, 180.974 828.936, 176.663 830.044 C 172.353 831.152, 166.053 833.455, 162.663 835.162 C 159.274 836.869, 151.325 841.779, 145 846.075 C 138.675 850.370, 129.900 856.779, 125.500 860.318 C 121.100 863.857, 113.897 870.520, 109.494 875.126 C 105.090 879.732, 99.725 886.168, 97.571 889.429 C 95.418 892.690, 92.407 898.328, 90.882 901.959 C 89.357 905.589, 87.601 911.696, 86.980 915.530 C 86.354 919.393, 86.147 925.328, 86.515 928.843 C 86.880 932.332, 88.071 938.404, 89.160 942.336 C 90.250 946.268, 92.957 953.201, 95.176 957.742 C 97.394 962.284, 99.509 966, 99.875 966 C 100.241 966, 111.781 952.646, 125.520 936.324 C 145.371 912.742, 152.044 905.504, 158.018 901.074 C 162.152 898.008, 169.127 893.829, 173.518 891.788 C 177.908 889.746, 184.182 887.383, 187.460 886.538 C 190.738 885.692, 196.466 885, 200.189 885 C 205.446 885, 210.038 885.987, 220.749 889.420 C 228.335 891.850, 239.257 894.745, 245.020 895.852 C 250.784 896.958, 260.204 898.377, 265.954 899.005 C 271.703 899.632, 283.182 900.159, 291.462 900.176 C 299.742 900.193, 308.365 899.710, 310.624 899.101 C 312.884 898.493, 315.843 896.884, 317.202 895.526 L 319.671 893.056 327.227 905.278 C 331.383 912, 338.995 923.298, 344.142 930.385 C 349.289 937.472, 358.031 948.722, 363.569 955.385 C 369.106 962.048, 378.227 972.296, 383.836 978.158 C 389.446 984.020, 399.223 993.444, 405.563 999.099 C 411.903 1004.755, 421.683 1012.972, 427.295 1017.359 C 432.908 1021.747, 443.800 1029.465, 451.500 1034.511 C 459.200 1039.558, 470.170 1046.290, 475.877 1049.471 C 481.585 1052.653, 490.585 1057.282, 495.877 1059.758 C 501.170 1062.234, 511.575 1066.623, 519 1069.511 C 526.425 1072.399, 536.394 1075.941, 541.153 1077.383 C 545.911 1078.825, 555.361 1081.317, 562.153 1082.921 C 568.944 1084.525, 578.775 1086.543, 584 1087.405 C 589.225 1088.266, 598 1089.516, 603.500 1090.181 C 609 1090.846, 623.850 1091.383, 636.500 1091.374 C 649.150 1091.365, 664 1090.820, 669.500 1090.164 C 675 1089.508, 683.775 1088.266, 689 1087.405 C 694.225 1086.543, 703.951 1084.551, 710.613 1082.977 C 717.275 1081.404, 728.525 1078.243, 735.613 1075.952 C 742.701 1073.661, 753.370 1069.805, 759.323 1067.383 C 765.276 1064.961, 776.463 1059.813, 784.184 1055.943 C 791.905 1052.073, 802.785 1046.154, 808.361 1042.791 C 813.938 1039.427, 822.100 1034.185, 826.500 1031.142 C 830.900 1028.099, 839.038 1022.125, 844.584 1017.867 C 850.130 1013.610, 858.969 1006.297, 864.225 1001.617 C 869.481 996.938, 878.391 988.472, 884.024 982.804 C 889.658 977.137, 898.100 968.118, 902.785 962.762 L 911.302 953.024 915.401 956.792 C 917.655 958.864, 922.425 962.630, 926 965.160 C 929.575 967.691, 937.450 972.605, 943.500 976.081 C 949.550 979.557, 960.350 985.062, 967.500 988.313 C 974.650 991.565, 985.694 995.939, 992.042 998.035 C 998.390 1000.130, 1007.327 1002.554, 1011.902 1003.422 C 1016.478 1004.290, 1024.389 1005, 1029.482 1005 C 1035.964 1005, 1041.558 1004.283, 1048.122 1002.610 C 1053.280 1001.296, 1060.132 999.051, 1063.348 997.622 C 1066.564 996.193, 1072.235 993.003, 1075.951 990.533 C 1079.666 988.063, 1085.810 982.767, 1089.603 978.764 C 1093.396 974.762, 1097.990 968.675, 1099.812 965.238 C 1101.633 961.801, 1104.620 954.379, 1106.449 948.745 C 1108.278 943.110, 1111.647 934.452, 1113.936 929.505 C 1116.224 924.558, 1122.140 913.758, 1127.081 905.505 C 1132.022 897.252, 1139.410 885.822, 1143.499 880.104 C 1147.587 874.387, 1152.822 867.468, 1155.131 864.729 C 1158.836 860.335, 1161.381 858.766, 1176.775 851.382 C 1190.542 844.779, 1194.091 842.680, 1193.610 841.426 C 1193.274 840.552, 1193 839.253, 1193 838.540 C 1193 837.776, 1190.283 836.561, 1186.384 835.581 C 1182.746 834.667, 1176.333 833.669, 1172.134 833.362 C 1166.987 832.986, 1162.057 833.324, 1157 834.399 C 1152.875 835.276, 1145.900 837.725, 1141.500 839.841 C 1137.100 841.958, 1129.863 846.436, 1125.418 849.793 C 1120.973 853.149, 1113.323 860.099, 1108.418 865.237 C 1103.513 870.374, 1092.300 883.554, 1083.500 894.526 C 1074.700 905.498, 1063.900 918.248, 1059.500 922.861 C 1055.100 927.473, 1048.740 933.218, 1045.366 935.628 C 1041.993 938.038, 1037.268 940.878, 1034.866 941.939 C 1032.465 943, 1026.117 944.573, 1020.761 945.434 C 1015.404 946.295, 1007.273 947, 1002.692 947 C 998.067 947, 991.948 946.298, 988.932 945.422 C 985.944 944.554, 980.575 942.109, 977 939.988 C 973.425 937.868, 967.536 933.740, 963.912 930.816 C 960.289 927.892, 953.840 922.311, 949.581 918.413 L 941.837 911.327 950.508 896.913 C 955.277 888.986, 964.057 872.600, 970.020 860.500 C 975.982 848.400, 983.332 832.200, 986.352 824.500 C 989.372 816.800, 993.871 804.577, 996.350 797.338 C 998.828 790.098, 1002.676 777.674, 1004.902 769.729 C 1007.128 761.784, 1010.489 748.357, 1012.371 739.892 C 1014.253 731.426, 1016.731 719.100, 1017.878 712.500 C 1019.025 705.900, 1020.852 693.075, 1021.938 684 C 1023.024 674.925, 1024.382 660.891, 1024.956 652.813 C 1025.530 644.735, 1025.998 627.185, 1025.996 613.813 C 1025.994 600.441, 1025.540 583.200, 1024.987 575.500 C 1024.434 567.800, 1023.282 555.425, 1022.427 548 C 1021.573 540.575, 1020.214 530.225, 1019.408 525 C 1018.602 519.775, 1016.798 509.650, 1015.399 502.500 C 1014 495.350, 1011.103 482.470, 1008.960 473.877 C 1006.817 465.284, 1003.039 451.732, 1000.564 443.761 C 998.089 435.789, 994.049 423.851, 991.586 417.230 C 989.122 410.610, 984.972 400.087, 982.362 393.846 C 979.752 387.606, 973.451 374.175, 968.358 364 C 963.266 353.825, 955.566 339.650, 951.247 332.500 C 946.928 325.350, 940.531 315.225, 937.030 310 C 933.530 304.775, 926.714 295.298, 921.884 288.939 C 917.053 282.581, 908.866 272.456, 903.690 266.439 C 898.513 260.423, 886.882 248.300, 877.843 239.500 C 868.803 230.700, 856.703 219.783, 850.954 215.239 C 845.204 210.696, 836.225 203.935, 831 200.215 C 822.437 194.119, 821.169 192.795, 818.144 186.793 C 815.392 181.335, 814.694 178.636, 814.269 171.817 C 813.972 167.032, 814.263 161.039, 814.956 157.706 C 815.618 154.519, 817.990 148.219, 820.227 143.706 C 823.482 137.138, 826.112 133.699, 833.397 126.482 C 839.900 120.039, 844.374 116.549, 849.062 114.261 C 852.672 112.500, 858.063 110.536, 861.043 109.897 C 864.197 109.221, 869.853 108.975, 874.579 109.308 C 879.289 109.641, 885.719 110.937, 889.893 112.395 C 893.851 113.778, 899.821 116.569, 903.161 118.598 C 906.500 120.626, 912.148 125.013, 915.711 128.346 C 919.273 131.679, 924.153 137.159, 926.555 140.524 C 928.956 143.890, 932.722 150.436, 934.924 155.072 C 937.126 159.707, 939.932 167.325, 941.160 172 C 942.994 178.981, 943.385 183.091, 943.344 195 C 943.303 207.300, 942.908 210.941, 940.742 219 C 939.338 224.225, 936.832 231.648, 935.174 235.496 C 933.516 239.344, 932.307 242.640, 932.487 242.820 C 932.667 243, 934.318 242.383, 936.157 241.448 C 937.996 240.514, 942.267 237.790, 945.650 235.395 C 949.032 233.001, 954.672 227.894, 958.183 224.048 C 961.694 220.201, 966.383 214.004, 968.604 210.277 C 970.825 206.550, 974.017 200.125, 975.697 196 C 977.377 191.875, 979.595 185.125, 980.626 181 C 982.082 175.173, 982.489 169.931, 982.452 157.500 C 982.408 142.703, 982.203 140.946, 979.721 134.129 C 978.245 130.075, 975.435 123.894, 973.477 120.392 C 971.519 116.891, 967.291 110.758, 964.081 106.763 C 960.871 102.768, 956.278 97.658, 953.873 95.407 C 951.468 93.156, 946.840 89.193, 943.589 86.601 C 940.338 84.009, 933.987 79.707, 929.476 77.042 C 924.964 74.378, 917.620 70.591, 913.156 68.628 C 908.691 66.666, 901.198 63.946, 896.503 62.585 C 891.809 61.224, 883.465 59.565, 877.961 58.898 C 870.182 57.955, 865.801 57.950, 858.281 58.874 C 852.961 59.528, 844.659 61.386, 839.832 63.003 C 835.005 64.620, 828.230 67.356, 824.777 69.081 C 821.325 70.807, 814.727 74.714, 810.115 77.763 C 805.504 80.812, 797.810 87.175, 793.019 91.903 C 788.227 96.631, 782.509 102.975, 780.312 106 C 778.115 109.025, 774.919 113.952, 773.209 116.949 C 770.210 122.209, 770.069 122.313, 769.153 119.949 C 768.631 118.602, 767.226 115.025, 766.032 112 C 764.837 108.975, 761.879 102.855, 759.459 98.400 C 757.039 93.945, 752.948 87.420, 750.369 83.900 C 747.790 80.380, 743.199 74.661, 740.167 71.192 C 737.135 67.722, 731.244 62.045, 727.077 58.575 C 722.910 55.105, 716.350 50.238, 712.500 47.759 C 708.650 45.281, 702.197 41.595, 698.160 39.569 C 694.123 37.542, 686.248 34.356, 680.660 32.488 C 675.072 30.620, 666.450 28.381, 661.500 27.513 C 656.550 26.645, 646.875 25.751, 640 25.527 C 633.125 25.303, 624.399 25.512, 620.609 25.991 M 624 72.598 C 622.625 72.852, 618.350 73.791, 614.500 74.687 C 610.650 75.582, 604.474 77.539, 600.776 79.037 C 597.078 80.535, 590.778 83.809, 586.776 86.313 C 582.774 88.817, 576.947 93.151, 573.827 95.944 C 570.707 98.737, 565.866 103.898, 563.070 107.412 C 560.273 110.927, 555.991 117.559, 553.553 122.151 C 551.115 126.743, 547.880 134.550, 546.363 139.500 C 543.814 147.819, 543.606 149.786, 543.606 165.500 C 543.606 181.142, 543.822 183.202, 546.310 191.288 C 547.797 196.122, 550.638 203.322, 552.624 207.288 C 554.610 211.255, 558.446 217.499, 561.149 221.165 C 563.852 224.830, 568.870 230.455, 572.301 233.665 C 575.732 236.874, 581.144 241.229, 584.327 243.342 C 587.511 245.455, 593.487 248.741, 597.609 250.646 C 601.731 252.550, 608.567 255.069, 612.802 256.243 C 619.201 258.017, 623.200 258.375, 636.500 258.361 C 650.908 258.347, 653.360 258.083, 661.139 255.709 C 665.890 254.259, 672.346 251.937, 675.486 250.548 C 678.626 249.160, 684.342 245.932, 688.187 243.376 C 692.032 240.820, 698.195 235.752, 701.883 232.114 C 705.571 228.476, 710.511 222.668, 712.861 219.206 C 715.212 215.744, 718.900 209.219, 721.057 204.706 C 723.215 200.193, 725.943 192.900, 727.120 188.500 C 728.794 182.246, 729.280 177.444, 729.347 166.500 C 729.418 155.139, 729.014 150.827, 727.205 143.623 C 725.980 138.741, 723.192 130.936, 721.010 126.279 C 718.827 121.623, 715.018 114.976, 712.544 111.509 C 710.070 108.042, 705.276 102.436, 701.890 99.050 C 698.504 95.664, 693.074 91.087, 689.823 88.879 C 686.571 86.672, 680.219 83.100, 675.706 80.943 C 671.193 78.785, 663.900 76.081, 659.500 74.934 C 654.097 73.525, 647.442 72.732, 639 72.493 C 632.125 72.298, 625.375 72.345, 624 72.598 M 769.067 211.244 C 768.377 213.585, 766.032 219.325, 763.854 224 C 761.677 228.675, 757.809 235.847, 755.259 239.939 C 752.709 244.030, 747.336 251.326, 743.319 256.152 C 739.302 260.979, 732.545 267.889, 728.303 271.508 C 724.061 275.128, 717.622 280.044, 713.995 282.434 C 710.368 284.824, 703.372 288.800, 698.450 291.270 C 693.527 293.739, 685.225 297.148, 680 298.844 C 674.775 300.540, 666.450 302.714, 661.500 303.675 C 655.172 304.903, 647.602 305.422, 636 305.422 C 624.311 305.422, 616.943 304.912, 610.730 303.675 C 605.907 302.714, 597.916 300.607, 592.974 298.992 C 588.032 297.376, 580.532 294.458, 576.307 292.506 C 572.083 290.554, 564.202 286.012, 558.795 282.413 C 553.388 278.813, 544.857 271.960, 539.837 267.184 C 534.818 262.408, 528.147 255.125, 525.014 251 C 521.880 246.875, 518.759 242.449, 518.077 241.164 C 517.396 239.880, 516.558 239.108, 516.216 239.450 C 515.874 239.792, 514.763 244.218, 513.747 249.286 C 512.731 254.354, 509.654 264.125, 506.910 271 C 504.166 277.875, 499.194 288.450, 495.862 294.500 C 492.530 300.550, 486.440 310.628, 482.328 316.895 C 478.217 323.163, 471.410 332.838, 467.202 338.395 C 462.994 343.953, 455.044 353.900, 449.536 360.500 C 444.027 367.100, 433.440 378.614, 426.010 386.086 C 415.251 396.906, 411.177 400.315, 406 402.831 C 402.425 404.568, 397.025 406.452, 394 407.017 C 390.975 407.583, 386.475 407.774, 384 407.443 C 381.525 407.111, 377.250 406.139, 374.500 405.281 C 371.750 404.423, 366.867 402.405, 363.649 400.795 C 360.431 399.186, 357.576 398.090, 357.306 398.360 C 357.036 398.631, 353.959 407.165, 350.468 417.326 C 346.977 427.487, 342.107 443.833, 339.647 453.650 C 337.186 463.468, 334.037 478.250, 332.648 486.500 C 331.258 494.750, 329.321 508.250, 328.343 516.500 C 326.964 528.132, 326.567 539.133, 326.577 565.500 C 326.586 591.190, 327.006 603.015, 328.295 613.880 C 329.233 621.790, 331.168 633.490, 332.596 639.880 C 334.023 646.271, 336.494 654.875, 338.087 659 C 339.680 663.125, 342.685 668.739, 344.766 671.476 C 346.846 674.213, 350.751 678.117, 353.443 680.152 C 356.135 682.187, 360.850 684.814, 363.919 685.991 C 366.989 687.167, 373.823 688.840, 379.107 689.709 C 384.391 690.578, 389.961 690.976, 391.485 690.593 C 393.009 690.211, 395.517 688.637, 397.057 687.097 C 398.681 685.472, 400.575 681.830, 401.564 678.427 C 402.799 674.181, 403.246 669.095, 403.183 660.029 C 403.135 653.138, 401.939 637.464, 400.524 625.198 C 399.109 612.933, 397.947 597.633, 397.940 591.198 C 397.933 583.445, 398.457 577.740, 399.494 574.281 C 400.860 569.725, 402.800 567.298, 414.779 555.157 C 422.326 547.508, 432.113 538.597, 436.528 535.354 C 440.943 532.111, 447.918 527.805, 452.028 525.785 C 456.138 523.765, 462.875 521.172, 467 520.024 C 471.125 518.875, 478.826 517.661, 484.113 517.325 C 489.401 516.989, 494.907 517.011, 496.351 517.373 C 497.794 517.735, 499.601 519.037, 500.366 520.266 C 501.130 521.495, 502.019 523.935, 502.341 525.688 C 502.904 528.759, 502.243 529.512, 484.346 546.188 C 474.127 555.710, 462.183 567.550, 457.803 572.500 C 453.423 577.450, 446.712 586.203, 442.888 591.952 C 439.065 597.701, 435.687 603.399, 435.382 604.614 C 435.058 605.905, 436.913 613.197, 439.846 622.162 C 442.607 630.598, 446.263 643.055, 447.971 649.845 C 449.680 656.634, 451.732 666.534, 452.533 671.845 C 453.333 677.155, 453.991 684.662, 453.994 688.526 C 453.997 692.391, 453.532 699.366, 452.960 704.026 C 452.388 708.687, 451.205 715.425, 450.330 719 C 449.455 722.575, 447.479 728.014, 445.938 731.087 C 444.397 734.159, 441.528 738.085, 439.564 739.810 C 437.599 741.535, 433.421 743.694, 430.280 744.607 C 425.703 745.937, 421.980 746.155, 411.535 745.702 C 402.600 745.315, 395.353 744.353, 388.496 742.644 C 382.994 741.272, 374.066 738.732, 368.656 736.999 C 363.245 735.266, 358.648 734.018, 358.440 734.227 C 358.232 734.435, 360.922 741, 364.418 748.816 C 367.914 756.632, 373.673 768.308, 377.216 774.764 C 380.759 781.219, 386.231 790.652, 389.375 795.726 C 392.519 800.800, 398.719 810.025, 403.154 816.226 C 407.588 822.427, 415.397 832.450, 420.507 838.500 C 425.617 844.550, 435.806 855.382, 443.149 862.571 C 450.492 869.759, 461.225 879.403, 467 884 C 472.775 888.598, 483.508 896.310, 490.851 901.140 C 498.195 905.969, 511.020 913.296, 519.351 917.420 C 527.683 921.545, 539.233 926.676, 545.017 928.821 C 550.801 930.967, 559.576 933.885, 564.517 935.306 C 569.458 936.727, 579.125 939.012, 586 940.383 C 592.875 941.755, 603 943.418, 608.500 944.079 C 614 944.740, 626.825 945.272, 637 945.261 C 648.411 945.250, 660.290 944.608, 668 943.586 C 674.875 942.675, 685.675 940.790, 692 939.396 C 698.325 938.002, 710.043 934.694, 718.040 932.045 C 726.037 929.395, 737.287 925.091, 743.040 922.480 C 748.793 919.869, 758.675 914.841, 765 911.307 C 771.325 907.773, 777.400 904.205, 778.500 903.379 C 780.463 901.905, 780.444 901.836, 777.500 899.691 C 775.850 898.489, 771.070 894.493, 766.878 890.811 C 762.686 887.129, 755.742 879.927, 751.446 874.808 C 747.151 869.689, 740.971 861.450, 737.713 856.500 C 734.456 851.550, 729.784 843.515, 727.332 838.644 C 724.880 833.774, 721.301 825.089, 719.379 819.346 C 717.458 813.603, 715.246 805.563, 714.465 801.480 C 713.683 797.396, 712.757 789.880, 712.405 784.778 C 712.049 779.607, 712.261 771.473, 712.885 766.403 C 713.500 761.399, 714.879 753.885, 715.948 749.704 C 717.017 745.524, 719.293 738.593, 721.005 734.302 C 722.718 730.011, 726.230 722.724, 728.810 718.109 C 731.389 713.494, 736.261 706.744, 739.635 703.109 C 743.009 699.474, 749.511 693.800, 754.082 690.500 C 759.054 686.911, 774.995 672.043, 793.752 653.500 C 823.906 623.690, 825.170 622.577, 826.669 624.500 C 827.526 625.600, 829.414 628.975, 830.864 632 C 833.227 636.930, 833.497 638.640, 833.472 648.500 C 833.450 656.858, 832.898 661.422, 831.172 667.500 C 829.923 671.900, 826.422 680.675, 823.392 687 C 820.362 693.325, 814.578 703.450, 810.539 709.500 C 806.500 715.550, 799.601 724.775, 795.209 730 C 790.816 735.225, 783.457 743.100, 778.855 747.500 C 774.252 751.900, 768.516 757.209, 766.107 759.299 L 761.728 763.098 762.277 771.799 C 762.580 776.584, 763.785 783.425, 764.957 787 C 766.129 790.575, 769.753 798.900, 773.011 805.500 C 776.366 812.298, 782.160 821.791, 786.374 827.398 C 790.466 832.841, 797.569 841.114, 802.157 845.782 C 806.746 850.450, 813.792 856.909, 817.816 860.135 C 821.839 863.361, 825.496 866, 825.943 866 C 826.389 866, 831.081 861.493, 836.369 855.984 C 841.656 850.475, 849.252 842.037, 853.248 837.234 C 857.244 832.430, 864.030 823.673, 868.328 817.772 C 872.626 811.872, 879.970 800.847, 884.647 793.272 C 889.325 785.698, 897.132 771.400, 901.998 761.500 C 906.863 751.600, 912.959 738.100, 915.544 731.500 C 918.130 724.900, 922.024 714.100, 924.198 707.500 C 926.372 700.900, 929.894 688.750, 932.025 680.500 C 934.155 672.250, 937.054 659.496, 938.466 652.157 C 939.878 644.819, 941.912 631.971, 942.986 623.607 C 944.060 615.243, 945.457 598.797, 946.090 587.060 C 946.956 571.019, 946.959 560.387, 946.101 544.240 C 945.473 532.426, 944.060 515.726, 942.961 507.130 C 941.863 498.533, 940.041 486.550, 938.913 480.500 C 937.785 474.450, 935.500 463.875, 933.834 457 C 932.168 450.125, 928.789 437.975, 926.325 430 C 923.861 422.025, 918.908 408.087, 915.317 399.027 C 911.727 389.967, 905.489 375.964, 901.454 367.909 C 897.420 359.854, 891.772 349.267, 888.902 344.382 C 886.033 339.497, 879.738 329.650, 874.915 322.500 C 870.091 315.350, 862.175 304.554, 857.322 298.508 C 852.470 292.463, 842.425 281.260, 835 273.613 C 827.575 265.966, 817.534 256.637, 812.686 252.881 C 807.838 249.126, 801.282 243.903, 798.116 241.276 C 794.951 238.649, 789.246 232.782, 785.439 228.237 C 781.631 223.692, 776.890 217.269, 774.902 213.964 C 772.914 210.658, 771.070 207.736, 770.804 207.471 C 770.538 207.205, 769.756 208.903, 769.067 211.244" stroke="none" fill="none" fill-rule="evenodd"/><path d="M 596.500 1.123 C 589.900 1.584, 576.594 2.879, 566.931 4 C 557.269 5.121, 542.869 7.122, 534.931 8.447 C 526.994 9.771, 513.069 12.454, 503.987 14.408 C 494.905 16.362, 480.730 19.802, 472.487 22.052 C 464.244 24.302, 449.850 28.638, 440.500 31.688 C 431.150 34.737, 416.300 40.048, 407.500 43.490 C 398.700 46.931, 384.750 52.762, 376.500 56.447 C 368.250 60.133, 354.552 66.770, 346.059 71.196 C 337.567 75.623, 324.067 83.073, 316.059 87.753 C 308.052 92.433, 294.373 100.981, 285.661 106.749 C 276.950 112.517, 263.346 122.103, 255.430 128.053 C 247.514 134.002, 237.091 142.156, 232.269 146.174 C 227.446 150.191, 217.650 158.712, 210.500 165.109 C 203.350 171.507, 190.506 183.896, 181.958 192.640 C 173.410 201.385, 160.641 215.281, 153.583 223.520 C 146.524 231.759, 135.322 245.700, 128.689 254.500 C 122.056 263.300, 111.586 278.150, 105.423 287.500 C 99.259 296.850, 89.877 312.073, 84.575 321.328 C 79.272 330.584, 71.631 344.759, 67.595 352.828 C 63.558 360.898, 57.666 373.350, 54.501 380.500 C 51.337 387.650, 46.331 399.686, 43.379 407.246 C 40.426 414.807, 36.179 426.282, 33.941 432.746 C 31.703 439.211, 27.468 452.825, 24.529 463 C 21.589 473.175, 17.369 489.600, 15.150 499.500 C 12.931 509.400, 9.751 525.825, 8.082 536 C 6.413 546.175, 4.378 560.575, 3.559 568 C 2.740 575.425, 1.606 587.800, 1.039 595.500 C 0.472 603.200, 0.008 623.225, 0.008 640 C 0.008 656.775, 0.472 676.800, 1.039 684.500 C 1.606 692.200, 2.740 704.575, 3.559 712 C 4.378 719.425, 6.422 733.825, 8.101 744 C 9.780 754.175, 12.958 770.600, 15.163 780.500 C 17.368 790.400, 21.580 806.825, 24.522 817 C 27.465 827.175, 31.703 840.789, 33.941 847.254 C 36.179 853.718, 40.426 865.193, 43.379 872.754 C 46.331 880.314, 51.337 892.350, 54.501 899.500 C 57.666 906.650, 63.558 919.102, 67.595 927.172 C 71.631 935.241, 79.268 949.416, 84.565 958.672 C 89.862 967.927, 99.368 983.312, 105.688 992.860 C 112.009 1002.408, 122.506 1017.276, 129.016 1025.899 C 135.526 1034.523, 146.585 1048.279, 153.591 1056.468 C 160.597 1064.658, 173.118 1078.306, 181.415 1086.797 C 189.712 1095.289, 202.140 1107.334, 209.033 1113.564 C 215.926 1119.795, 227.176 1129.496, 234.033 1135.123 C 240.890 1140.750, 251.516 1149.091, 257.646 1153.658 C 263.777 1158.225, 275.219 1166.276, 283.072 1171.549 C 290.926 1176.822, 303.282 1184.666, 310.529 1188.981 C 317.776 1193.296, 329.959 1200.214, 337.603 1204.354 C 345.246 1208.495, 359.150 1215.441, 368.500 1219.792 C 377.850 1224.142, 392.337 1230.467, 400.693 1233.848 C 409.049 1237.228, 425.249 1243.124, 436.693 1246.948 C 448.137 1250.773, 464.244 1255.733, 472.487 1257.970 C 480.730 1260.208, 494.680 1263.586, 503.487 1265.478 C 512.294 1267.370, 526.250 1270.061, 534.500 1271.458 C 542.750 1272.856, 557.375 1274.881, 567 1275.959 C 576.625 1277.037, 591.398 1278.387, 599.830 1278.960 C 608.261 1279.532, 626.338 1280, 640 1280 C 653.662 1280, 671.739 1279.532, 680.170 1278.960 C 688.602 1278.387, 703.375 1277.037, 713 1275.959 C 722.625 1274.881, 737.250 1272.856, 745.500 1271.458 C 753.750 1270.061, 767.706 1267.370, 776.513 1265.478 C 785.320 1263.586, 799.270 1260.208, 807.513 1257.970 C 815.756 1255.733, 831.725 1250.818, 843 1247.048 C 854.275 1243.278, 869.350 1237.859, 876.500 1235.006 C 883.650 1232.153, 896.475 1226.674, 905 1222.831 C 913.525 1218.988, 927.025 1212.432, 935 1208.261 C 942.975 1204.091, 955.915 1196.921, 963.756 1192.329 C 971.596 1187.737, 983.296 1180.552, 989.756 1176.363 C 996.215 1172.173, 1006.900 1164.875, 1013.500 1160.146 C 1020.100 1155.417, 1032.032 1146.310, 1040.015 1139.908 C 1047.998 1133.507, 1060.823 1122.645, 1068.515 1115.771 C 1076.207 1108.897, 1089.475 1096.121, 1098 1087.381 C 1106.525 1078.641, 1118.909 1065.192, 1125.520 1057.495 C 1132.131 1049.798, 1141.982 1037.720, 1147.410 1030.655 C 1152.839 1023.591, 1161.533 1011.666, 1166.730 1004.155 C 1171.927 996.645, 1179.676 984.875, 1183.950 978 C 1188.224 971.125, 1194.895 959.834, 1198.774 952.909 C 1202.653 945.984, 1208.959 934.059, 1212.786 926.409 C 1216.613 918.759, 1222.334 906.650, 1225.499 899.500 C 1228.663 892.350, 1233.686 880.269, 1236.661 872.653 C 1239.635 865.037, 1244.519 851.537, 1247.514 842.653 C 1250.509 833.769, 1255.233 818.175, 1258.013 808 C 1260.792 797.825, 1265.062 779.600, 1267.501 767.500 C 1269.940 755.400, 1272.838 739.200, 1273.939 731.500 C 1275.041 723.800, 1276.631 710.574, 1277.471 702.110 C 1278.312 693.645, 1279 684.334, 1279 681.419 C 1279 678.503, 1279.450 675.840, 1280 675.500 C 1280.637 675.106, 1281 661.803, 1281 638.882 C 1281 619.082, 1280.618 603.118, 1280.150 603.407 C 1279.683 603.696, 1279.010 598.885, 1278.654 592.716 C 1278.299 586.547, 1277.313 575.425, 1276.465 568 C 1275.616 560.575, 1274.035 548.875, 1272.950 542 C 1271.866 535.125, 1269.600 522.525, 1267.915 514 C 1266.230 505.475, 1262.893 490.850, 1260.500 481.500 C 1258.107 472.150, 1254.059 457.776, 1251.505 449.557 C 1248.951 441.339, 1244.618 428.514, 1241.876 421.057 C 1239.134 413.601, 1234.381 401.425, 1231.312 394 C 1228.244 386.575, 1221.767 372.267, 1216.919 362.205 C 1212.071 352.144, 1205.072 338.419, 1201.366 331.705 C 1197.661 324.992, 1191.485 314.325, 1187.642 308 C 1183.799 301.675, 1176.637 290.481, 1171.725 283.124 C 1166.814 275.767, 1157.475 262.699, 1150.972 254.085 C 1144.468 245.470, 1133.415 231.689, 1126.409 223.461 C 1119.403 215.232, 1104.182 199.026, 1092.585 187.448 C 1080.988 175.869, 1066.775 162.336, 1061 157.375 C 1055.225 152.413, 1044.875 143.881, 1038 138.413 C 1031.125 132.946, 1020.100 124.598, 1013.500 119.862 C 1006.900 115.125, 996.325 107.883, 990 103.768 C 983.675 99.653, 971.975 92.474, 964 87.816 C 956.025 83.157, 943.875 76.374, 937 72.741 C 930.125 69.108, 917.750 63.017, 909.500 59.206 C 901.250 55.395, 887.663 49.516, 879.307 46.141 C 870.951 42.767, 854.751 36.876, 843.307 33.052 C 831.863 29.227, 815.756 24.267, 807.513 22.030 C 799.270 19.792, 785.320 16.413, 776.513 14.521 C 767.706 12.629, 753.750 9.944, 745.500 8.554 C 737.250 7.165, 722.850 5.141, 713.500 4.058 C 704.150 2.975, 689.602 1.618, 681.170 1.044 C 672.739 0.470, 652.939 0.064, 637.170 0.142 C 621.402 0.220, 603.100 0.662, 596.500 1.123 M 604.658 5.106 C 596.494 5.550, 583.219 6.627, 575.158 7.499 C 567.096 8.370, 555.775 9.759, 550 10.585 C 544.225 11.412, 534.550 12.984, 528.500 14.080 C 522.450 15.176, 510.101 17.674, 501.057 19.632 C 492.013 21.589, 476.263 25.591, 466.057 28.524 C 455.851 31.457, 440.750 36.194, 432.500 39.052 C 424.250 41.910, 410.525 47.062, 402 50.502 C 393.475 53.942, 379.075 60.226, 370 64.466 C 360.925 68.707, 347.200 75.591, 339.500 79.763 C 331.800 83.935, 319.875 90.724, 313 94.848 C 306.125 98.973, 294.425 106.401, 287 111.355 C 279.575 116.309, 269.225 123.509, 264 127.355 C 258.775 131.202, 250.225 137.728, 245 141.858 C 239.775 145.988, 230.794 153.447, 225.043 158.434 C 219.292 163.420, 209.392 172.349, 203.043 178.275 C 196.694 184.201, 185.486 195.451, 178.135 203.275 C 170.783 211.099, 159.495 223.800, 153.049 231.500 C 146.603 239.200, 136.470 252.016, 130.532 259.981 C 124.593 267.945, 115.121 281.445, 109.483 289.981 C 103.846 298.516, 95.555 311.800, 91.059 319.500 C 86.563 327.200, 78.441 342.305, 73.009 353.066 C 67.578 363.827, 59.780 380.477, 55.680 390.066 C 51.580 399.655, 45.535 414.925, 42.247 424 C 38.959 433.075, 34.210 447.475, 31.693 456 C 29.177 464.525, 25.980 475.775, 24.589 481 C 23.198 486.225, 20.744 496.575, 19.136 504 C 17.528 511.425, 15.055 524.250, 13.642 532.500 C 12.228 540.750, 10.393 552.900, 9.565 559.500 C 8.737 566.100, 7.598 576.225, 7.034 582 C 6.470 587.775, 5.545 603.182, 4.978 616.238 C 4.263 632.712, 4.271 647.401, 5.004 664.238 C 5.585 677.582, 6.735 695.025, 7.560 703 C 8.385 710.975, 9.961 723.800, 11.062 731.500 C 12.163 739.200, 15.062 755.400, 17.505 767.500 C 19.947 779.600, 24 796.925, 26.511 806 C 29.022 815.075, 32.899 828.125, 35.128 835 C 37.357 841.875, 41.214 853.125, 43.701 860 C 46.187 866.875, 51.586 880.375, 55.700 890 C 59.814 899.625, 67.637 916.301, 73.085 927.058 C 78.533 937.814, 86.653 952.889, 91.129 960.558 C 95.605 968.226, 103.935 981.582, 109.640 990.238 C 115.345 998.894, 125.358 1013.069, 131.890 1021.738 C 138.422 1030.407, 148.486 1043.125, 154.256 1050 C 160.025 1056.875, 170.468 1068.575, 177.463 1076 C 184.457 1083.425, 196.327 1095.289, 203.840 1102.365 C 211.353 1109.440, 223.800 1120.509, 231.500 1126.962 C 239.200 1133.415, 250.952 1142.792, 257.616 1147.800 C 264.280 1152.808, 275.987 1161.158, 283.632 1166.355 C 291.276 1171.551, 303.824 1179.595, 311.515 1184.229 C 319.207 1188.863, 331.800 1196.059, 339.500 1200.219 C 347.200 1204.379, 360.700 1211.156, 369.500 1215.279 C 378.300 1219.401, 390.571 1224.861, 396.769 1227.412 C 402.967 1229.962, 413.459 1234.066, 420.086 1236.532 C 426.712 1238.998, 440.091 1243.523, 449.817 1246.588 C 459.543 1249.653, 475.375 1254.118, 485 1256.510 C 494.625 1258.902, 507 1261.772, 512.500 1262.888 C 518 1264.004, 529.250 1266.037, 537.500 1267.407 C 545.750 1268.777, 558.350 1270.576, 565.500 1271.406 C 572.650 1272.236, 585.025 1273.480, 593 1274.171 C 600.975 1274.862, 622.125 1275.427, 640 1275.427 C 657.875 1275.427, 679.025 1274.864, 687 1274.175 C 694.975 1273.486, 708.758 1272.045, 717.628 1270.972 C 726.499 1269.899, 740.449 1267.873, 748.628 1266.470 C 756.808 1265.067, 771.345 1262.132, 780.932 1259.948 C 790.520 1257.764, 805.550 1253.920, 814.332 1251.405 C 823.114 1248.890, 837.545 1244.351, 846.400 1241.318 C 855.255 1238.285, 869.250 1233.079, 877.500 1229.749 C 885.750 1226.419, 899.600 1220.398, 908.278 1216.369 C 916.956 1212.340, 930.906 1205.358, 939.278 1200.854 C 947.650 1196.350, 960.125 1189.292, 967 1185.169 C 973.875 1181.046, 986.211 1173.164, 994.414 1167.653 C 1002.616 1162.143, 1014.991 1153.386, 1021.914 1148.193 C 1028.836 1143, 1040.800 1133.460, 1048.500 1126.993 C 1056.200 1120.526, 1068.514 1109.569, 1075.865 1102.644 C 1083.216 1095.719, 1095.077 1083.854, 1102.223 1076.276 C 1109.369 1068.699, 1119.945 1056.875, 1125.725 1050 C 1131.505 1043.125, 1141.578 1030.407, 1148.110 1021.738 C 1154.642 1013.069, 1164.655 998.894, 1170.360 990.238 C 1176.065 981.582, 1184.395 968.226, 1188.871 960.558 C 1193.347 952.889, 1201.458 937.814, 1206.896 927.058 C 1212.333 916.301, 1219.132 902.100, 1222.004 895.500 C 1224.877 888.900, 1229.243 878.325, 1231.707 872 C 1234.171 865.675, 1238.851 852.652, 1242.107 843.060 C 1245.363 833.467, 1250.032 818.392, 1252.482 809.560 C 1254.932 800.727, 1258.283 787.425, 1259.928 780 C 1261.573 772.575, 1264.054 760.329, 1265.441 752.787 C 1266.827 745.245, 1268.863 732.195, 1269.965 723.787 C 1271.067 715.379, 1272.426 703.550, 1272.986 697.500 C 1273.545 691.450, 1274.464 676.043, 1275.028 663.262 C 1275.737 647.182, 1275.727 632.550, 1274.996 615.762 C 1274.415 602.418, 1273.265 584.975, 1272.440 577 C 1271.615 569.025, 1270.039 556.200, 1268.938 548.500 C 1267.837 540.800, 1264.941 524.600, 1262.502 512.500 C 1260.063 500.400, 1255.612 481.725, 1252.611 471 C 1249.610 460.275, 1244.134 442.725, 1240.442 432 C 1236.750 421.275, 1230.854 405.525, 1227.339 397 C 1223.824 388.475, 1215.592 370.700, 1209.045 357.500 C 1202.498 344.300, 1193.449 327.200, 1188.937 319.500 C 1184.424 311.800, 1176.065 298.418, 1170.360 289.762 C 1164.655 281.106, 1154.642 266.931, 1148.110 258.262 C 1141.578 249.593, 1131.512 236.875, 1125.740 230 C 1119.969 223.125, 1109.201 211.076, 1101.811 203.224 C 1094.421 195.372, 1082.553 183.513, 1075.437 176.871 C 1068.322 170.228, 1056.200 159.496, 1048.500 153.021 C 1040.800 146.546, 1028.836 137, 1021.914 131.807 C 1014.991 126.614, 1002.616 117.847, 994.414 112.324 C 986.211 106.802, 973.650 98.784, 966.500 94.506 C 959.350 90.229, 946.837 83.148, 938.693 78.771 C 930.549 74.393, 916.824 67.548, 908.193 63.559 C 899.562 59.571, 885.750 53.582, 877.500 50.252 C 869.250 46.921, 855.255 41.715, 846.400 38.682 C 837.545 35.649, 823.114 31.110, 814.332 28.595 C 805.550 26.080, 790.520 22.233, 780.932 20.046 C 771.345 17.859, 755.625 14.737, 746 13.108 C 736.375 11.479, 719.950 9.208, 709.500 8.061 C 699.050 6.914, 682.400 5.539, 672.500 5.007 C 662.600 4.474, 646.625 4.096, 637 4.167 C 627.375 4.238, 612.821 4.661, 604.658 5.106 M 620.609 25.991 C 616.819 26.470, 610.294 27.622, 606.109 28.551 C 601.924 29.480, 594.675 31.589, 590 33.237 C 585.325 34.885, 577.225 38.389, 572 41.023 C 566.775 43.658, 559.305 48.070, 555.401 50.827 C 551.496 53.584, 544.446 59.490, 539.733 63.951 C 535.020 68.413, 528.676 75.311, 525.636 79.281 C 522.595 83.252, 517.850 90.256, 515.092 94.846 C 512.334 99.436, 508.222 107.936, 505.955 113.734 C 503.688 119.533, 500.732 129.053, 499.387 134.889 C 497.720 142.118, 496.761 149.962, 496.375 159.500 C 496.064 167.200, 496.245 176.875, 496.777 181 C 497.309 185.125, 497.629 188.635, 497.489 188.799 C 497.349 188.964, 495.573 187.971, 493.542 186.593 C 491.511 185.215, 487.296 183.126, 484.175 181.951 C 481.054 180.776, 475.125 179.477, 471 179.066 C 466.875 178.654, 459.900 178.706, 455.500 179.180 C 451.100 179.655, 444.191 180.944, 440.147 182.047 C 436.103 183.149, 428.678 185.637, 423.647 187.577 C 418.616 189.517, 409.855 193.560, 404.179 196.561 C 398.502 199.562, 389.502 204.750, 384.179 208.091 C 378.855 211.432, 369.368 217.841, 363.095 222.333 C 356.823 226.825, 345.798 235.402, 338.595 241.393 C 331.393 247.384, 320.446 256.985, 314.269 262.727 C 308.092 268.470, 300.773 276.015, 298.005 279.493 C 295.237 282.972, 291.789 288.404, 290.342 291.565 C 288.682 295.191, 287.536 299.752, 287.238 303.922 C 286.928 308.250, 287.337 312.772, 288.423 317.016 C 289.335 320.582, 291.646 326.650, 293.558 330.500 C 295.471 334.350, 299.699 341.202, 302.955 345.727 L 308.874 353.953 300.566 371.227 C 295.997 380.727, 289.326 395.925, 285.742 405 C 282.157 414.075, 276.952 428.475, 274.173 437 C 271.394 445.525, 267.527 458.575, 265.578 466 C 263.629 473.425, 260.892 484.675, 259.495 491 C 258.098 497.325, 255.819 509.212, 254.430 517.416 C 253.041 525.620, 251.049 539.826, 250.002 548.984 C 248.955 558.142, 247.562 576.517, 246.906 589.818 C 245.983 608.541, 245.983 619.459, 246.906 638.182 C 247.562 651.483, 248.969 669.978, 250.032 679.283 C 251.096 688.587, 253.105 702.937, 254.496 711.171 C 255.888 719.405, 257.945 730.272, 259.068 735.321 C 260.190 740.369, 262.680 750.749, 264.601 758.387 C 266.523 766.024, 270.998 781.148, 274.547 791.994 C 278.096 802.841, 281 813.188, 281 814.989 C 281 816.790, 280.096 819.727, 278.991 821.514 C 277.886 823.302, 275.702 825.295, 274.137 825.943 C 272.572 826.591, 269.763 827.186, 267.896 827.263 C 266.028 827.341, 256.850 826.800, 247.500 826.062 C 236.754 825.212, 224.614 824.947, 214.500 825.340 C 205.700 825.682, 195.350 826.427, 191.500 826.996 C 187.650 827.565, 180.974 828.936, 176.663 830.044 C 172.353 831.152, 166.053 833.455, 162.663 835.162 C 159.274 836.869, 151.325 841.779, 145 846.075 C 138.675 850.370, 129.900 856.779, 125.500 860.318 C 121.100 863.857, 113.897 870.520, 109.494 875.126 C 105.090 879.732, 99.725 886.168, 97.571 889.429 C 95.418 892.690, 92.407 898.328, 90.882 901.959 C 89.357 905.589, 87.601 911.696, 86.980 915.530 C 86.354 919.393, 86.147 925.328, 86.515 928.843 C 86.880 932.332, 88.071 938.404, 89.160 942.336 C 90.250 946.268, 92.957 953.201, 95.176 957.742 C 97.394 962.284, 99.509 966, 99.875 966 C 100.241 966, 111.781 952.646, 125.520 936.324 C 145.371 912.742, 152.044 905.504, 158.018 901.074 C 162.152 898.008, 169.127 893.829, 173.518 891.788 C 177.908 889.746, 184.182 887.383, 187.460 886.538 C 190.738 885.692, 196.466 885, 200.189 885 C 205.446 885, 210.038 885.987, 220.749 889.420 C 228.335 891.850, 239.257 894.745, 245.020 895.852 C 250.784 896.958, 260.204 898.377, 265.954 899.005 C 271.703 899.632, 283.182 900.159, 291.462 900.176 C 299.742 900.193, 308.365 899.710, 310.624 899.101 C 312.884 898.493, 315.843 896.884, 317.202 895.526 L 319.671 893.056 327.227 905.278 C 331.383 912, 338.995 923.298, 344.142 930.385 C 349.289 937.472, 358.031 948.722, 363.569 955.385 C 369.106 962.048, 378.227 972.296, 383.836 978.158 C 389.446 984.020, 399.223 993.444, 405.563 999.099 C 411.903 1004.755, 421.683 1012.972, 427.295 1017.359 C 432.908 1021.747, 443.800 1029.465, 451.500 1034.511 C 459.200 1039.558, 470.170 1046.290, 475.877 1049.471 C 481.585 1052.653, 490.585 1057.282, 495.877 1059.758 C 501.170 1062.234, 511.575 1066.623, 519 1069.511 C 526.425 1072.399, 536.394 1075.941, 541.153 1077.383 C 545.911 1078.825, 555.361 1081.317, 562.153 1082.921 C 568.944 1084.525, 578.775 1086.543, 584 1087.405 C 589.225 1088.266, 598 1089.516, 603.500 1090.181 C 609 1090.846, 623.850 1091.383, 636.500 1091.374 C 649.150 1091.365, 664 1090.820, 669.500 1090.164 C 675 1089.508, 683.775 1088.266, 689 1087.405 C 694.225 1086.543, 703.951 1084.551, 710.613 1082.977 C 717.275 1081.404, 728.525 1078.243, 735.613 1075.952 C 742.701 1073.661, 753.370 1069.805, 759.323 1067.383 C 765.276 1064.961, 776.463 1059.813, 784.184 1055.943 C 791.905 1052.073, 802.785 1046.154, 808.361 1042.791 C 813.938 1039.427, 822.100 1034.185, 826.500 1031.142 C 830.900 1028.099, 839.038 1022.125, 844.584 1017.867 C 850.130 1013.610, 858.969 1006.297, 864.225 1001.617 C 869.481 996.938, 878.391 988.472, 884.024 982.804 C 889.658 977.137, 898.100 968.118, 902.785 962.762 L 911.302 953.024 915.401 956.792 C 917.655 958.864, 922.425 962.630, 926 965.160 C 929.575 967.691, 937.450 972.605, 943.500 976.081 C 949.550 979.557, 960.350 985.062, 967.500 988.313 C 974.650 991.565, 985.694 995.939, 992.042 998.035 C 998.390 1000.130, 1007.327 1002.554, 1011.902 1003.422 C 1016.478 1004.290, 1024.389 1005, 1029.482 1005 C 1035.964 1005, 1041.558 1004.283, 1048.122 1002.610 C 1053.280 1001.296, 1060.132 999.051, 1063.348 997.622 C 1066.564 996.193, 1072.235 993.003, 1075.951 990.533 C 1079.666 988.063, 1085.810 982.767, 1089.603 978.764 C 1093.396 974.762, 1097.990 968.675, 1099.812 965.238 C 1101.633 961.801, 1104.620 954.379, 1106.449 948.745 C 1108.278 943.110, 1111.647 934.452, 1113.936 929.505 C 1116.224 924.558, 1122.140 913.758, 1127.081 905.505 C 1132.022 897.252, 1139.410 885.822, 1143.499 880.104 C 1147.587 874.387, 1152.822 867.468, 1155.131 864.729 C 1158.836 860.335, 1161.381 858.766, 1176.775 851.382 C 1190.542 844.779, 1194.091 842.680, 1193.610 841.426 C 1193.274 840.552, 1193 839.253, 1193 838.540 C 1193 837.776, 1190.283 836.561, 1186.384 835.581 C 1182.746 834.667, 1176.333 833.669, 1172.134 833.362 C 1166.987 832.986, 1162.057 833.324, 1157 834.399 C 1152.875 835.276, 1145.900 837.725, 1141.500 839.841 C 1137.100 841.958, 1129.863 846.436, 1125.418 849.793 C 1120.973 853.149, 1113.323 860.099, 1108.418 865.237 C 1103.513 870.374, 1092.300 883.554, 1083.500 894.526 C 1074.700 905.498, 1063.900 918.248, 1059.500 922.861 C 1055.100 927.473, 1048.740 933.218, 1045.366 935.628 C 1041.993 938.038, 1037.268 940.878, 1034.866 941.939 C 1032.465 943, 1026.117 944.573, 1020.761 945.434 C 1015.404 946.295, 1007.273 947, 1002.692 947 C 998.067 947, 991.948 946.298, 988.932 945.422 C 985.944 944.554, 980.575 942.109, 977 939.988 C 973.425 937.868, 967.536 933.740, 963.912 930.816 C 960.289 927.892, 953.840 922.311, 949.581 918.413 L 941.837 911.327 950.508 896.913 C 955.277 888.986, 964.057 872.600, 970.020 860.500 C 975.982 848.400, 983.332 832.200, 986.352 824.500 C 989.372 816.800, 993.871 804.577, 996.350 797.338 C 998.828 790.098, 1002.676 777.674, 1004.902 769.729 C 1007.128 761.784, 1010.489 748.357, 1012.371 739.892 C 1014.253 731.426, 1016.731 719.100, 1017.878 712.500 C 1019.025 705.900, 1020.852 693.075, 1021.938 684 C 1023.024 674.925, 1024.382 660.891, 1024.956 652.813 C 1025.530 644.735, 1025.998 627.185, 1025.996 613.813 C 1025.994 600.441, 1025.540 583.200, 1024.987 575.500 C 1024.434 567.800, 1023.282 555.425, 1022.427 548 C 1021.573 540.575, 1020.214 530.225, 1019.408 525 C 1018.602 519.775, 1016.798 509.650, 1015.399 502.500 C 1014 495.350, 1011.103 482.470, 1008.960 473.877 C 1006.817 465.284, 1003.039 451.732, 1000.564 443.761 C 998.089 435.789, 994.049 423.851, 991.586 417.230 C 989.122 410.610, 984.972 400.087, 982.362 393.846 C 979.752 387.606, 973.451 374.175, 968.358 364 C 963.266 353.825, 955.566 339.650, 951.247 332.500 C 946.928 325.350, 940.531 315.225, 937.030 310 C 933.530 304.775, 926.714 295.298, 921.884 288.939 C 917.053 282.581, 908.866 272.456, 903.690 266.439 C 898.513 260.423, 886.882 248.300, 877.843 239.500 C 868.803 230.700, 856.703 219.783, 850.954 215.239 C 845.204 210.696, 836.225 203.935, 831 200.215 C 822.437 194.119, 821.169 192.795, 818.144 186.793 C 815.392 181.335, 814.694 178.636, 814.269 171.817 C 813.972 167.032, 814.263 161.039, 814.956 157.706 C 815.618 154.519, 817.990 148.219, 820.227 143.706 C 823.482 137.138, 826.112 133.699, 833.397 126.482 C 839.900 120.039, 844.374 116.549, 849.062 114.261 C 852.672 112.500, 858.063 110.536, 861.043 109.897 C 864.197 109.221, 869.853 108.975, 874.579 109.308 C 879.289 109.641, 885.719 110.937, 889.893 112.395 C 893.851 113.778, 899.821 116.569, 903.161 118.598 C 906.500 120.626, 912.148 125.013, 915.711 128.346 C 919.273 131.679, 924.153 137.159, 926.555 140.524 C 928.956 143.890, 932.722 150.436, 934.924 155.072 C 937.126 159.707, 939.932 167.325, 941.160 172 C 942.994 178.981, 943.385 183.091, 943.344 195 C 943.303 207.300, 942.908 210.941, 940.742 219 C 939.338 224.225, 936.832 231.648, 935.174 235.496 C 933.516 239.344, 932.307 242.640, 932.487 242.820 C 932.667 243, 934.318 242.383, 936.157 241.448 C 937.996 240.514, 942.267 237.790, 945.650 235.395 C 949.032 233.001, 954.672 227.894, 958.183 224.048 C 961.694 220.201, 966.383 214.004, 968.604 210.277 C 970.825 206.550, 974.017 200.125, 975.697 196 C 977.377 191.875, 979.595 185.125, 980.626 181 C 982.082 175.173, 982.489 169.931, 982.452 157.500 C 982.408 142.703, 982.203 140.946, 979.721 134.129 C 978.245 130.075, 975.435 123.894, 973.477 120.392 C 971.519 116.891, 967.291 110.758, 964.081 106.763 C 960.871 102.768, 956.278 97.658, 953.873 95.407 C 951.468 93.156, 946.840 89.193, 943.589 86.601 C 940.338 84.009, 933.987 79.707, 929.476 77.042 C 924.964 74.378, 917.620 70.591, 913.156 68.628 C 908.691 66.666, 901.198 63.946, 896.503 62.585 C 891.809 61.224, 883.465 59.565, 877.961 58.898 C 870.182 57.955, 865.801 57.950, 858.281 58.874 C 852.961 59.528, 844.659 61.386, 839.832 63.003 C 835.005 64.620, 828.230 67.356, 824.777 69.081 C 821.325 70.807, 814.727 74.714, 810.115 77.763 C 805.504 80.812, 797.810 87.175, 793.019 91.903 C 788.227 96.631, 782.509 102.975, 780.312 106 C 778.115 109.025, 774.919 113.952, 773.209 116.949 C 770.210 122.209, 770.069 122.313, 769.153 119.949 C 768.631 118.602, 767.226 115.025, 766.032 112 C 764.837 108.975, 761.879 102.855, 759.459 98.400 C 757.039 93.945, 752.948 87.420, 750.369 83.900 C 747.790 80.380, 743.199 74.661, 740.167 71.192 C 737.135 67.722, 731.244 62.045, 727.077 58.575 C 722.910 55.105, 716.350 50.238, 712.500 47.759 C 708.650 45.281, 702.197 41.595, 698.160 39.569 C 694.123 37.542, 686.248 34.356, 680.660 32.488 C 675.072 30.620, 666.450 28.381, 661.500 27.513 C 656.550 26.645, 646.875 25.751, 640 25.527 C 633.125 25.303, 624.399 25.512, 620.609 25.991 M 624 72.598 C 622.625 72.852, 618.350 73.791, 614.500 74.687 C 610.650 75.582, 604.474 77.539, 600.776 79.037 C 597.078 80.535, 590.778 83.809, 586.776 86.313 C 582.774 88.817, 576.947 93.151, 573.827 95.944 C 570.707 98.737, 565.866 103.898, 563.070 107.412 C 560.273 110.927, 555.991 117.559, 553.553 122.151 C 551.115 126.743, 547.880 134.550, 546.363 139.500 C 543.814 147.819, 543.606 149.786, 543.606 165.500 C 543.606 181.142, 543.822 183.202, 546.310 191.288 C 547.797 196.122, 550.638 203.322, 552.624 207.288 C 554.610 211.255, 558.446 217.499, 561.149 221.165 C 563.852 224.830, 568.870 230.455, 572.301 233.665 C 575.732 236.874, 581.144 241.229, 584.327 243.342 C 587.511 245.455, 593.487 248.741, 597.609 250.646 C 601.731 252.550, 608.567 255.069, 612.802 256.243 C 619.201 258.017, 623.200 258.375, 636.500 258.361 C 650.908 258.347, 653.360 258.083, 661.139 255.709 C 665.890 254.259, 672.346 251.937, 675.486 250.548 C 678.626 249.160, 684.342 245.932, 688.187 243.376 C 692.032 240.820, 698.195 235.752, 701.883 232.114 C 705.571 228.476, 710.511 222.668, 712.861 219.206 C 715.212 215.744, 718.900 209.219, 721.057 204.706 C 723.215 200.193, 725.943 192.900, 727.120 188.500 C 728.794 182.246, 729.280 177.444, 729.347 166.500 C 729.418 155.139, 729.014 150.827, 727.205 143.623 C 725.980 138.741, 723.192 130.936, 721.010 126.279 C 718.827 121.623, 715.018 114.976, 712.544 111.509 C 710.070 108.042, 705.276 102.436, 701.890 99.050 C 698.504 95.664, 693.074 91.087, 689.823 88.879 C 686.571 86.672, 680.219 83.100, 675.706 80.943 C 671.193 78.785, 663.900 76.081, 659.500 74.934 C 654.097 73.525, 647.442 72.732, 639 72.493 C 632.125 72.298, 625.375 72.345, 624 72.598 M 769.067 211.244 C 768.377 213.585, 766.032 219.325, 763.854 224 C 761.677 228.675, 757.809 235.847, 755.259 239.939 C 752.709 244.030, 747.336 251.326, 743.319 256.152 C 739.302 260.979, 732.545 267.889, 728.303 271.508 C 724.061 275.128, 717.622 280.044, 713.995 282.434 C 710.368 284.824, 703.372 288.800, 698.450 291.270 C 693.527 293.739, 685.225 297.148, 680 298.844 C 674.775 300.540, 666.450 302.714, 661.500 303.675 C 655.172 304.903, 647.602 305.422, 636 305.422 C 624.311 305.422, 616.943 304.912, 610.730 303.675 C 605.907 302.714, 597.916 300.607, 592.974 298.992 C 588.032 297.376, 580.532 294.458, 576.307 292.506 C 572.083 290.554, 564.202 286.012, 558.795 282.413 C 553.388 278.813, 544.857 271.960, 539.837 267.184 C 534.818 262.408, 528.147 255.125, 525.014 251 C 521.880 246.875, 518.759 242.449, 518.077 241.164 C 517.396 239.880, 516.558 239.108, 516.216 239.450 C 515.874 239.792, 514.763 244.218, 513.747 249.286 C 512.731 254.354, 509.654 264.125, 506.910 271 C 504.166 277.875, 499.194 288.450, 495.862 294.500 C 492.530 300.550, 486.440 310.628, 482.328 316.895 C 478.217 323.163, 471.410 332.838, 467.202 338.395 C 462.994 343.953, 455.044 353.900, 449.536 360.500 C 444.027 367.100, 433.440 378.614, 426.010 386.086 C 415.251 396.906, 411.177 400.315, 406 402.831 C 402.425 404.568, 397.025 406.452, 394 407.017 C 390.975 407.583, 386.475 407.774, 384 407.443 C 381.525 407.111, 377.250 406.139, 374.500 405.281 C 371.750 404.423, 366.867 402.405, 363.649 400.795 C 360.431 399.186, 357.576 398.090, 357.306 398.360 C 357.036 398.631, 353.959 407.165, 350.468 417.326 C 346.977 427.487, 342.107 443.833, 339.647 453.650 C 337.186 463.468, 334.037 478.250, 332.648 486.500 C 331.258 494.750, 329.321 508.250, 328.343 516.500 C 326.964 528.132, 326.567 539.133, 326.577 565.500 C 326.586 591.190, 327.006 603.015, 328.295 613.880 C 329.233 621.790, 331.168 633.490, 332.596 639.880 C 334.023 646.271, 336.494 654.875, 338.087 659 C 339.680 663.125, 342.685 668.739, 344.766 671.476 C 346.846 674.213, 350.751 678.117, 353.443 680.152 C 356.135 682.187, 360.850 684.814, 363.919 685.991 C 366.989 687.167, 373.823 688.840, 379.107 689.709 C 384.391 690.578, 389.961 690.976, 391.485 690.593 C 393.009 690.211, 395.517 688.637, 397.057 687.097 C 398.681 685.472, 400.575 681.830, 401.564 678.427 C 402.799 674.181, 403.246 669.095, 403.183 660.029 C 403.135 653.138, 401.939 637.464, 400.524 625.198 C 399.109 612.933, 397.947 597.633, 397.940 591.198 C 397.933 583.445, 398.457 577.740, 399.494 574.281 C 400.860 569.725, 402.800 567.298, 414.779 555.157 C 422.326 547.508, 432.113 538.597, 436.528 535.354 C 440.943 532.111, 447.918 527.805, 452.028 525.785 C 456.138 523.765, 462.875 521.172, 467 520.024 C 471.125 518.875, 478.826 517.661, 484.113 517.325 C 489.401 516.989, 494.907 517.011, 496.351 517.373 C 497.794 517.735, 499.601 519.037, 500.366 520.266 C 501.130 521.495, 502.019 523.935, 502.341 525.688 C 502.904 528.759, 502.243 529.512, 484.346 546.188 C 474.127 555.710, 462.183 567.550, 457.803 572.500 C 453.423 577.450, 446.712 586.203, 442.888 591.952 C 439.065 597.701, 435.687 603.399, 435.382 604.614 C 435.058 605.905, 436.913 613.197, 439.846 622.162 C 442.607 630.598, 446.263 643.055, 447.971 649.845 C 449.680 656.634, 451.732 666.534, 452.533 671.845 C 453.333 677.155, 453.991 684.662, 453.994 688.526 C 453.997 692.391, 453.532 699.366, 452.960 704.026 C 452.388 708.687, 451.205 715.425, 450.330 719 C 449.455 722.575, 447.479 728.014, 445.938 731.087 C 444.397 734.159, 441.528 738.085, 439.564 739.810 C 437.599 741.535, 433.421 743.694, 430.280 744.607 C 425.703 745.937, 421.980 746.155, 411.535 745.702 C 402.600 745.315, 395.353 744.353, 388.496 742.644 C 382.994 741.272, 374.066 738.732, 368.656 736.999 C 363.245 735.266, 358.648 734.018, 358.440 734.227 C 358.232 734.435, 360.922 741, 364.418 748.816 C 367.914 756.632, 373.673 768.308, 377.216 774.764 C 380.759 781.219, 386.231 790.652, 389.375 795.726 C 392.519 800.800, 398.719 810.025, 403.154 816.226 C 407.588 822.427, 415.397 832.450, 420.507 838.500 C 425.617 844.550, 435.806 855.382, 443.149 862.571 C 450.492 869.759, 461.225 879.403, 467 884 C 472.775 888.598, 483.508 896.310, 490.851 901.140 C 498.195 905.969, 511.020 913.296, 519.351 917.420 C 527.683 921.545, 539.233 926.676, 545.017 928.821 C 550.801 930.967, 559.576 933.885, 564.517 935.306 C 569.458 936.727, 579.125 939.012, 586 940.383 C 592.875 941.755, 603 943.418, 608.500 944.079 C 614 944.740, 626.825 945.272, 637 945.261 C 648.411 945.250, 660.290 944.608, 668 943.586 C 674.875 942.675, 685.675 940.790, 692 939.396 C 698.325 938.002, 710.043 934.694, 718.040 932.045 C 726.037 929.395, 737.287 925.091, 743.040 922.480 C 748.793 919.869, 758.675 914.841, 765 911.307 C 771.325 907.773, 777.400 904.205, 778.500 903.379 C 780.463 901.905, 780.444 901.836, 777.500 899.691 C 775.850 898.489, 771.070 894.493, 766.878 890.811 C 762.686 887.129, 755.742 879.927, 751.446 874.808 C 747.151 869.689, 740.971 861.450, 737.713 856.500 C 734.456 851.550, 729.784 843.515, 727.332 838.644 C 724.880 833.774, 721.301 825.089, 719.379 819.346 C 717.458 813.603, 715.246 805.563, 714.465 801.480 C 713.683 797.396, 712.757 789.880, 712.405 784.778 C 712.049 779.607, 712.261 771.473, 712.885 766.403 C 713.500 761.399, 714.879 753.885, 715.948 749.704 C 717.017 745.524, 719.293 738.593, 721.005 734.302 C 722.718 730.011, 726.230 722.724, 728.810 718.109 C 731.389 713.494, 736.261 706.744, 739.635 703.109 C 743.009 699.474, 749.511 693.800, 754.082 690.500 C 759.054 686.911, 774.995 672.043, 793.752 653.500 C 823.906 623.690, 825.170 622.577, 826.669 624.500 C 827.526 625.600, 829.414 628.975, 830.864 632 C 833.227 636.930, 833.497 638.640, 833.472 648.500 C 833.450 656.858, 832.898 661.422, 831.172 667.500 C 829.923 671.900, 826.422 680.675, 823.392 687 C 820.362 693.325, 814.578 703.450, 810.539 709.500 C 806.500 715.550, 799.601 724.775, 795.209 730 C 790.816 735.225, 783.457 743.100, 778.855 747.500 C 774.252 751.900, 768.516 757.209, 766.107 759.299 L 761.728 763.098 762.277 771.799 C 762.580 776.584, 763.785 783.425, 764.957 787 C 766.129 790.575, 769.753 798.900, 773.011 805.500 C 776.366 812.298, 782.160 821.791, 786.374 827.398 C 790.466 832.841, 797.569 841.114, 802.157 845.782 C 806.746 850.450, 813.792 856.909, 817.816 860.135 C 821.839 863.361, 825.496 866, 825.943 866 C 826.389 866, 831.081 861.493, 836.369 855.984 C 841.656 850.475, 849.252 842.037, 853.248 837.234 C 857.244 832.430, 864.030 823.673, 868.328 817.772 C 872.626 811.872, 879.970 800.847, 884.647 793.272 C 889.325 785.698, 897.132 771.400, 901.998 761.500 C 906.863 751.600, 912.959 738.100, 915.544 731.500 C 918.130 724.900, 922.024 714.100, 924.198 707.500 C 926.372 700.900, 929.894 688.750, 932.025 680.500 C 934.155 672.250, 937.054 659.496, 938.466 652.157 C 939.878 644.819, 941.912 631.971, 942.986 623.607 C 944.060 615.243, 945.457 598.797, 946.090 587.060 C 946.956 571.019, 946.959 560.387, 946.101 544.240 C 945.473 532.426, 944.060 515.726, 942.961 507.130 C 941.863 498.533, 940.041 486.550, 938.913 480.500 C 937.785 474.450, 935.500 463.875, 933.834 457 C 932.168 450.125, 928.789 437.975, 926.325 430 C 923.861 422.025, 918.908 408.087, 915.317 399.027 C 911.727 389.967, 905.489 375.964, 901.454 367.909 C 897.420 359.854, 891.772 349.267, 888.902 344.382 C 886.033 339.497, 879.738 329.650, 874.915 322.500 C 870.091 315.350, 862.175 304.554, 857.322 298.508 C 852.470 292.463, 842.425 281.260, 835 273.613 C 827.575 265.966, 817.534 256.637, 812.686 252.881 C 807.838 249.126, 801.282 243.903, 798.116 241.276 C 794.951 238.649, 789.246 232.782, 785.439 228.237 C 781.631 223.692, 776.890 217.269, 774.902 213.964 C 772.914 210.658, 771.070 207.736, 770.804 207.471 C 770.538 207.205, 769.756 208.903, 769.067 211.244 M 0.452 640 C 0.452 660.075, 0.585 668.288, 0.749 658.250 C 0.912 648.213, 0.912 631.788, 0.749 621.750 C 0.585 611.712, 0.452 619.925, 0.452 640" stroke="none" fill="#000000" fill-rule="evenodd"/></svg>