<svg width="224" height="224" xmlns="http://www.w3.org/2000/svg" preserveAspectRatio="xMidYMid meet" version="1.0">

 <g>
  <title>Layer 1</title>
  <ellipse stroke-width="0" stroke="#000" ry="111.75" rx="111.875" id="svg_4" cy="112.25" cx="112.125" fill="#fff"/>
  <g stroke="null" id="svg_1" fill="#000000" transform="translate(0 224) scale(0.1 -0.1)">
   <path stroke="null" id="svg_2" d="m980,2009c-101,-26 -274,-110 -296,-144c-9,-14 -20,-22 -23,-16c-9,15 -102,-61 -121,-100c-10,-18 -19,-27 -22,-19c-5,17 -74,-84 -93,-139c-8,-24 -15,-61 -15,-82c0,-31 6,-43 37,-68c20,-17 46,-30 57,-29c12,1 32,-2 44,-6c21,-7 23,-6 17,14c-7,21 -5,22 23,17c27,-5 29,-4 24,15c-4,18 -2,20 16,16c16,-4 22,-2 22,9c0,30 50,82 88,93c31,10 46,8 92,-9c90,-34 91,-36 43,-79c-23,-20 -53,-57 -68,-80c-19,-32 -32,-43 -44,-39c-12,3 -18,-1 -17,-12c1,-11 -6,-15 -22,-14c-17,2 -22,-2 -20,-15c2,-12 -3,-16 -18,-15c-18,2 -21,-2 -17,-20c15,-60 61,-63 147,-8c95,60 156,88 221,101c77,16 103,30 148,79c42,47 52,88 43,177c-6,58 -5,64 16,78c13,8 52,19 87,25c74,12 138,41 172,77l24,26l-25,-8c-14,-5 -54,-8 -90,-7c-36,1 -110,4 -164,5c-58,2 -101,7 -103,14c-6,18 70,46 149,55c81,8 183,46 214,80c16,18 14,18 -62,13c-62,-5 -99,-2 -167,15c-109,26 -199,26 -297,0zm-157,-199c-33,-20 -37,-28 -33,-63c3,-31 -20,-47 -61,-45c-22,2 -39,3 -39,4c0,8 94,96 115,107c43,23 56,21 18,-3zm-293,-244c0,-16 -14,-35 -22,-30c-5,3 -16,-2 -23,-12c-20,-26 -19,-4 1,24c13,19 44,31 44,18z"/>
   <path stroke="null" id="svg_3" d="m1466,1729c-22,-16 -57,-32 -78,-36c-22,-3 -49,-14 -61,-24c-32,-25 -10,-42 52,-41c28,1 51,-1 51,-4c0,-3 -25,-16 -55,-30c-86,-39 -66,-82 46,-100l44,-7l-30,-13c-16,-7 -50,-13 -75,-14c-53,0 -93,-18 -98,-43c-2,-10 10,-31 29,-48l32,-30l-29,6c-16,4 -42,11 -57,15c-43,14 -80,-7 -75,-42c5,-33 3,-34 -40,-8c-41,25 -54,25 -136,0c-95,-30 -232,-125 -358,-250c-112,-111 -158,-182 -158,-248c0,-113 70,-288 152,-378c106,-116 293,-206 457,-221l66,-6l-50,35c-27,19 -65,56 -82,82c-88,129 -63,297 56,381c38,27 52,30 124,33c76,3 86,1 133,-27c46,-27 72,-56 120,-137c10,-18 12,-18 40,0c151,96 253,225 298,375c9,30 14,56 12,58c-2,2 -27,-12 -55,-31c-63,-43 -107,-56 -188,-56c-75,0 -116,13 -111,37c3,17 53,57 120,98c18,11 42,37 54,58l21,38l13,-30c7,-17 16,-31 21,-31c13,0 10,69 -4,110c-7,19 -11,59 -9,88c2,42 6,52 21,52c22,0 76,-55 96,-100l16,-35l-6,39c-9,56 -46,132 -97,201c-47,63 -76,135 -54,135c6,0 28,-14 49,-31c45,-37 46,-30 7,37c-29,51 -103,124 -157,155c-27,16 -29,15 -67,-12z"/>
  </g>
 </g>
</svg>